<svg width="392" height="137" viewBox="0 0 392 137" fill="none" xmlns="http://www.w3.org/2000/svg">
<path d="M0 8C0 3.58172 3.58172 0 8 0H384C388.418 0 392 3.58172 392 8V129C392 133.418 388.418 137 384 137H8C3.58172 137 0 133.418 0 129V8Z" fill="white" fill-opacity="0.05"/>
<path d="M43.652 39.964L22.52 50.116V47.488L38.54 39.64L22.52 31.792V29.092L43.652 39.316V39.964ZM51.6418 49.504C50.5618 49.504 49.7098 49.396 49.0858 49.18C48.4858 48.988 48.0658 48.736 47.8258 48.424C47.5858 48.112 47.4658 47.764 47.4658 47.38C47.4658 46.948 47.5978 46.552 47.8618 46.192C48.1258 45.808 48.5098 45.616 49.0138 45.616C49.4218 45.616 49.8298 45.724 50.2378 45.94C50.6458 46.132 51.0538 46.36 51.4618 46.624C51.8938 46.888 52.3258 47.128 52.7578 47.344C53.1898 47.536 53.6338 47.632 54.0898 47.632C54.8098 47.632 55.4698 47.5 56.0698 47.236C56.6698 46.948 57.1498 46.468 57.5098 45.796C57.8938 45.124 58.0858 44.2 58.0858 43.024C58.0858 41.944 57.8098 41.02 57.2578 40.252C56.7298 39.484 55.9858 38.884 55.0258 38.452C54.0898 38.02 53.0218 37.804 51.8218 37.804H51.1378V36.148H51.8578C52.6498 36.148 53.4058 35.956 54.1258 35.572C54.8698 35.188 55.4698 34.648 55.9258 33.952C56.4058 33.232 56.6458 32.404 56.6458 31.468C56.6458 30.46 56.3218 29.68 55.6738 29.128C55.0498 28.552 54.1978 28.264 53.1178 28.264C52.0618 28.264 51.1738 28.504 50.4538 28.984C49.7578 29.464 49.0978 30.16 48.4738 31.072L47.5378 30.532C48.2338 28.972 49.1458 27.784 50.2738 26.968C51.4258 26.128 52.7578 25.708 54.2698 25.708C56.1898 25.708 57.6778 26.176 58.7338 27.112C59.8138 28.048 60.3538 29.212 60.3538 30.604C60.3538 31.9 59.9698 32.932 59.2018 33.7C58.4578 34.444 57.4858 35.14 56.2858 35.788V35.968C57.3418 36.304 58.2778 36.76 59.0938 37.336C59.9338 37.888 60.5818 38.56 61.0378 39.352C61.4938 40.12 61.7218 41.032 61.7218 42.088C61.7218 43.72 61.2538 45.088 60.3178 46.192C59.4058 47.296 58.1818 48.124 56.6458 48.676C55.1338 49.228 53.4658 49.504 51.6418 49.504ZM72.31 49.396C70.87 49.396 69.646 49.084 68.638 48.46C67.63 47.836 66.814 46.984 66.19 45.904C65.566 44.8 65.11 43.528 64.822 42.088C64.534 40.624 64.39 39.088 64.39 37.48C64.39 35.152 64.69 33.124 65.29 31.396C65.914 29.644 66.814 28.288 67.99 27.328C69.19 26.368 70.654 25.888 72.382 25.888C73.966 25.888 75.346 26.344 76.522 27.256C77.698 28.168 78.61 29.488 79.258 31.216C79.93 32.944 80.266 35.068 80.266 37.588C80.266 39.172 80.11 40.672 79.798 42.088C79.51 43.504 79.054 44.764 78.43 45.868C77.806 46.948 76.99 47.812 75.982 48.46C74.974 49.084 73.75 49.396 72.31 49.396ZM72.31 47.992C73.534 47.992 74.482 47.152 75.154 45.472C75.826 43.768 76.162 41.212 76.162 37.804C76.162 34.204 75.838 31.54 75.19 29.812C74.542 28.084 73.57 27.22 72.274 27.22C71.05 27.22 70.102 28.084 69.43 29.812C68.758 31.516 68.422 34.132 68.422 37.66C68.422 41.092 68.758 43.672 69.43 45.4C70.102 47.128 71.062 47.992 72.31 47.992ZM90.1342 49.396C88.6942 49.396 87.4702 49.084 86.4622 48.46C85.4542 47.836 84.6382 46.984 84.0142 45.904C83.3902 44.8 82.9342 43.528 82.6462 42.088C82.3582 40.624 82.2142 39.088 82.2142 37.48C82.2142 35.152 82.5142 33.124 83.1142 31.396C83.7382 29.644 84.6382 28.288 85.8142 27.328C87.0142 26.368 88.4782 25.888 90.2062 25.888C91.7902 25.888 93.1702 26.344 94.3462 27.256C95.5222 28.168 96.4342 29.488 97.0822 31.216C97.7542 32.944 98.0902 35.068 98.0902 37.588C98.0902 39.172 97.9342 40.672 97.6222 42.088C97.3342 43.504 96.8782 44.764 96.2542 45.868C95.6302 46.948 94.8142 47.812 93.8062 48.46C92.7982 49.084 91.5742 49.396 90.1342 49.396ZM90.1342 47.992C91.3582 47.992 92.3062 47.152 92.9782 45.472C93.6502 43.768 93.9862 41.212 93.9862 37.804C93.9862 34.204 93.6622 31.54 93.0142 29.812C92.3662 28.084 91.3942 27.22 90.0982 27.22C88.8742 27.22 87.9262 28.084 87.2542 29.812C86.5822 31.516 86.2462 34.132 86.2462 37.66C86.2462 41.092 86.5822 43.672 87.2542 45.4C87.9262 47.128 88.8862 47.992 90.1342 47.992Z" fill="white"/>
<path d="M31.312 72.8V84H30.144V73.824H23.056V84H21.888V72.8H31.312ZM39.1551 75.52C39.9445 75.52 40.6591 75.7013 41.2991 76.064C41.9391 76.416 42.4405 76.9173 42.8031 77.568C43.1658 78.2187 43.3471 78.96 43.3471 79.792C43.3471 80.6347 43.1658 81.3813 42.8031 82.032C42.4405 82.6827 41.9391 83.1893 41.2991 83.552C40.6698 83.904 39.9551 84.08 39.1551 84.08C38.4725 84.08 37.8538 83.9413 37.2991 83.664C36.7551 83.376 36.3071 82.96 35.9551 82.416V87.104H34.8191V75.584H35.9071V77.248C36.2485 76.6933 36.6965 76.2667 37.2511 75.968C37.8165 75.6693 38.4511 75.52 39.1551 75.52ZM39.0751 83.072C39.6618 83.072 40.1951 82.9387 40.6751 82.672C41.1551 82.3947 41.5285 82.0053 41.7951 81.504C42.0725 81.0027 42.2111 80.432 42.2111 79.792C42.2111 79.152 42.0725 78.5867 41.7951 78.096C41.5285 77.5947 41.1551 77.2053 40.6751 76.928C40.1951 76.6507 39.6618 76.512 39.0751 76.512C38.4778 76.512 37.9391 76.6507 37.4591 76.928C36.9898 77.2053 36.6165 77.5947 36.3391 78.096C36.0725 78.5867 35.9391 79.152 35.9391 79.792C35.9391 80.432 36.0725 81.0027 36.3391 81.504C36.6165 82.0053 36.9898 82.3947 37.4591 82.672C37.9391 82.9387 38.4778 83.072 39.0751 83.072ZM53.1479 80.144H46.1079C46.1719 81.0187 46.5079 81.728 47.1159 82.272C47.7239 82.8053 48.4919 83.072 49.4199 83.072C49.9425 83.072 50.4225 82.9813 50.8599 82.8C51.2972 82.608 51.6759 82.3307 51.9959 81.968L52.6359 82.704C52.2625 83.152 51.7932 83.4933 51.2279 83.728C50.6732 83.9627 50.0599 84.08 49.3879 84.08C48.5239 84.08 47.7559 83.8987 47.0839 83.536C46.4225 83.1627 45.9052 82.6507 45.5319 82C45.1585 81.3493 44.9719 80.6133 44.9719 79.792C44.9719 78.9707 45.1479 78.2347 45.4999 77.584C45.8625 76.9333 46.3532 76.4267 46.9719 76.064C47.6012 75.7013 48.3052 75.52 49.0839 75.52C49.8625 75.52 50.5612 75.7013 51.1799 76.064C51.7985 76.4267 52.2839 76.9333 52.6359 77.584C52.9879 78.224 53.1639 78.96 53.1639 79.792L53.1479 80.144ZM49.0839 76.496C48.2732 76.496 47.5905 76.7573 47.0359 77.28C46.4919 77.792 46.1825 78.464 46.1079 79.296H52.0759C52.0012 78.464 51.6865 77.792 51.1319 77.28C50.5879 76.7573 49.9052 76.496 49.0839 76.496ZM63.7146 83.008V86.032H62.6426V84H55.1066V86.032H54.0346V83.008H54.5146C55.08 82.976 55.464 82.56 55.6666 81.76C55.8693 80.96 56.008 79.84 56.0826 78.4L56.1946 75.584H62.4026V83.008H63.7146ZM57.1226 78.464C57.0693 79.6587 56.968 80.6453 56.8186 81.424C56.6693 82.192 56.4026 82.72 56.0186 83.008H61.2666V76.592H57.2186L57.1226 78.464ZM69.4485 84.08C68.6165 84.08 67.8698 83.8987 67.2085 83.536C66.5578 83.1733 66.0458 82.6667 65.6725 82.016C65.2992 81.3547 65.1125 80.6133 65.1125 79.792C65.1125 78.9707 65.2992 78.2347 65.6725 77.584C66.0458 76.9333 66.5578 76.4267 67.2085 76.064C67.8698 75.7013 68.6165 75.52 69.4485 75.52C70.1738 75.52 70.8192 75.664 71.3845 75.952C71.9605 76.2293 72.4138 76.64 72.7445 77.184L71.8965 77.76C71.6192 77.344 71.2672 77.0347 70.8405 76.832C70.4138 76.6187 69.9498 76.512 69.4485 76.512C68.8405 76.512 68.2912 76.6507 67.8005 76.928C67.3205 77.1947 66.9418 77.5787 66.6645 78.08C66.3978 78.5813 66.2645 79.152 66.2645 79.792C66.2645 80.4427 66.3978 81.0187 66.6645 81.52C66.9418 82.0107 67.3205 82.3947 67.8005 82.672C68.2912 82.9387 68.8405 83.072 69.4485 83.072C69.9498 83.072 70.4138 82.9707 70.8405 82.768C71.2672 82.5653 71.6192 82.256 71.8965 81.84L72.7445 82.416C72.4138 82.96 71.9605 83.376 71.3845 83.664C70.8085 83.9413 70.1632 84.08 69.4485 84.08ZM80.7079 76.592H77.5239V84H76.3879V76.592H73.2039V75.584H80.7079V76.592ZM85.2464 75.52C86.345 75.52 87.1877 75.7973 87.7744 76.352C88.361 76.896 88.6544 77.7067 88.6544 78.784V84H87.5664V82.688C87.3104 83.1253 86.9317 83.4667 86.4304 83.712C85.9397 83.9573 85.353 84.08 84.6704 84.08C83.7317 84.08 82.985 83.856 82.4304 83.408C81.8757 82.96 81.5984 82.368 81.5984 81.632C81.5984 80.9173 81.8544 80.3413 82.3664 79.904C82.889 79.4667 83.7157 79.248 84.8464 79.248H87.5184V78.736C87.5184 78.0107 87.3157 77.4613 86.9104 77.088C86.505 76.704 85.913 76.512 85.1344 76.512C84.601 76.512 84.089 76.6027 83.5984 76.784C83.1077 76.9547 82.6864 77.1947 82.3344 77.504L81.8224 76.656C82.249 76.2933 82.761 76.016 83.3584 75.824C83.9557 75.6213 84.585 75.52 85.2464 75.52ZM84.8464 83.184C85.4864 83.184 86.0357 83.04 86.4944 82.752C86.953 82.4533 87.2944 82.0267 87.5184 81.472V80.096H84.8784C83.4384 80.096 82.7184 80.5973 82.7184 81.6C82.7184 82.0907 82.905 82.48 83.2784 82.768C83.6517 83.0453 84.1744 83.184 84.8464 83.184ZM97.0385 79.648C98.1798 79.9147 98.7505 80.6027 98.7505 81.712C98.7505 82.448 98.4785 83.0133 97.9345 83.408C97.3905 83.8027 96.5798 84 95.5025 84H91.6785V75.584H95.3905C96.3505 75.584 97.1025 75.7707 97.6465 76.144C98.1905 76.5173 98.4625 77.0507 98.4625 77.744C98.4625 78.2027 98.3345 78.5973 98.0785 78.928C97.8332 79.248 97.4865 79.488 97.0385 79.648ZM92.7825 79.328H95.3105C95.9612 79.328 96.4572 79.2053 96.7985 78.96C97.1505 78.7147 97.3265 78.3573 97.3265 77.888C97.3265 77.4187 97.1505 77.0667 96.7985 76.832C96.4572 76.5973 95.9612 76.48 95.3105 76.48H92.7825V79.328ZM95.4545 83.104C96.1798 83.104 96.7238 82.9867 97.0865 82.752C97.4492 82.5173 97.6305 82.1493 97.6305 81.648C97.6305 81.1467 97.4652 80.7787 97.1345 80.544C96.8038 80.2987 96.2812 80.176 95.5665 80.176H92.7825V83.104H95.4545ZM108.293 75.584V84H107.157V76.592H103.125L103.013 78.672C102.928 80.4213 102.725 81.7653 102.405 82.704C102.085 83.6427 101.514 84.112 100.693 84.112C100.469 84.112 100.197 84.0693 99.8769 83.984L99.9569 83.008C100.149 83.0507 100.282 83.072 100.357 83.072C100.794 83.072 101.125 82.8693 101.349 82.464C101.573 82.0587 101.722 81.5573 101.797 80.96C101.872 80.3627 101.936 79.5733 101.989 78.592L102.133 75.584H108.293ZM118.882 80.144H111.842C111.906 81.0187 112.242 81.728 112.85 82.272C113.458 82.8053 114.226 83.072 115.154 83.072C115.677 83.072 116.157 82.9813 116.594 82.8C117.032 82.608 117.41 82.3307 117.73 81.968L118.37 82.704C117.997 83.152 117.528 83.4933 116.962 83.728C116.408 83.9627 115.794 84.08 115.122 84.08C114.258 84.08 113.49 83.8987 112.818 83.536C112.157 83.1627 111.64 82.6507 111.266 82C110.893 81.3493 110.706 80.6133 110.706 79.792C110.706 78.9707 110.882 78.2347 111.234 77.584C111.597 76.9333 112.088 76.4267 112.706 76.064C113.336 75.7013 114.04 75.52 114.818 75.52C115.597 75.52 116.296 75.7013 116.914 76.064C117.533 76.4267 118.018 76.9333 118.37 77.584C118.722 78.224 118.898 78.96 118.898 79.792L118.882 80.144ZM114.818 76.496C114.008 76.496 113.325 76.7573 112.77 77.28C112.226 77.792 111.917 78.464 111.842 79.296H117.81C117.736 78.464 117.421 77.792 116.866 77.28C116.322 76.7573 115.64 76.496 114.818 76.496ZM121.413 75.584H122.549V79.312H127.845V75.584H128.981V84H127.845V80.288H122.549V84H121.413V75.584ZM132.21 75.584H133.346V82.272L138.962 75.584H139.97V84H138.834V77.312L133.234 84H132.21V75.584ZM149.689 75.584V84H148.649V81.216H146.009H145.689L143.737 84H142.505L144.601 81.056C143.951 80.8747 143.449 80.5653 143.097 80.128C142.745 79.6907 142.569 79.136 142.569 78.464C142.569 77.5253 142.889 76.8107 143.529 76.32C144.169 75.8293 145.044 75.584 146.153 75.584H149.689ZM143.721 78.496C143.721 79.744 144.516 80.368 146.105 80.368H148.649V76.592H146.185C144.543 76.592 143.721 77.2267 143.721 78.496ZM157.116 75.584H158.252V82.272L163.868 75.584H164.876V84H163.74V77.312L158.14 84H157.116V75.584ZM168.132 75.584H169.268V79.312H174.564V75.584H175.7V84H174.564V80.288H169.268V84H168.132V75.584ZM184.849 76.592H181.665V84H180.529V76.592H177.345V75.584H184.849V76.592ZM193.46 80.144H186.42C186.484 81.0187 186.82 81.728 187.428 82.272C188.036 82.8053 188.804 83.072 189.732 83.072C190.255 83.072 190.735 82.9813 191.172 82.8C191.61 82.608 191.988 82.3307 192.308 81.968L192.948 82.704C192.575 83.152 192.106 83.4933 191.54 83.728C190.986 83.9627 190.372 84.08 189.7 84.08C188.836 84.08 188.068 83.8987 187.396 83.536C186.735 83.1627 186.218 82.6507 185.844 82C185.471 81.3493 185.284 80.6133 185.284 79.792C185.284 78.9707 185.46 78.2347 185.812 77.584C186.175 76.9333 186.666 76.4267 187.284 76.064C187.914 75.7013 188.618 75.52 189.396 75.52C190.175 75.52 190.874 75.7013 191.492 76.064C192.111 76.4267 192.596 76.9333 192.948 77.584C193.3 78.224 193.476 78.96 193.476 79.792L193.46 80.144ZM189.396 76.496C188.586 76.496 187.903 76.7573 187.348 77.28C186.804 77.792 186.495 78.464 186.42 79.296H192.388C192.314 78.464 191.999 77.792 191.444 77.28C190.9 76.7573 190.218 76.496 189.396 76.496ZM200.327 75.52C201.116 75.52 201.831 75.7013 202.471 76.064C203.111 76.416 203.612 76.9173 203.975 77.568C204.338 78.2187 204.519 78.96 204.519 79.792C204.519 80.6347 204.338 81.3813 203.975 82.032C203.612 82.6827 203.111 83.1893 202.471 83.552C201.842 83.904 201.127 84.08 200.327 84.08C199.644 84.08 199.026 83.9413 198.471 83.664C197.927 83.376 197.479 82.96 197.127 82.416V87.104H195.991V75.584H197.079V77.248C197.42 76.6933 197.868 76.2667 198.423 75.968C198.988 75.6693 199.623 75.52 200.327 75.52ZM200.247 83.072C200.834 83.072 201.367 82.9387 201.847 82.672C202.327 82.3947 202.7 82.0053 202.967 81.504C203.244 81.0027 203.383 80.432 203.383 79.792C203.383 79.152 203.244 78.5867 202.967 78.096C202.7 77.5947 202.327 77.2053 201.847 76.928C201.367 76.6507 200.834 76.512 200.247 76.512C199.65 76.512 199.111 76.6507 198.631 76.928C198.162 77.2053 197.788 77.5947 197.511 78.096C197.244 78.5867 197.111 79.152 197.111 79.792C197.111 80.432 197.244 81.0027 197.511 81.504C197.788 82.0053 198.162 82.3947 198.631 82.672C199.111 82.9387 199.65 83.072 200.247 83.072ZM214.32 80.144H207.28C207.344 81.0187 207.68 81.728 208.288 82.272C208.896 82.8053 209.664 83.072 210.592 83.072C211.114 83.072 211.594 82.9813 212.032 82.8C212.469 82.608 212.848 82.3307 213.168 81.968L213.808 82.704C213.434 83.152 212.965 83.4933 212.4 83.728C211.845 83.9627 211.232 84.08 210.56 84.08C209.696 84.08 208.928 83.8987 208.256 83.536C207.594 83.1627 207.077 82.6507 206.704 82C206.33 81.3493 206.144 80.6133 206.144 79.792C206.144 78.9707 206.32 78.2347 206.672 77.584C207.034 76.9333 207.525 76.4267 208.144 76.064C208.773 75.7013 209.477 75.52 210.256 75.52C211.034 75.52 211.733 75.7013 212.352 76.064C212.97 76.4267 213.456 76.9333 213.808 77.584C214.16 78.224 214.336 78.96 214.336 79.792L214.32 80.144ZM210.256 76.496C209.445 76.496 208.762 76.7573 208.208 77.28C207.664 77.792 207.354 78.464 207.28 79.296H213.248C213.173 78.464 212.858 77.792 212.304 77.28C211.76 76.7573 211.077 76.496 210.256 76.496ZM220.37 84.08C219.538 84.08 218.792 83.8987 218.13 83.536C217.48 83.1733 216.968 82.6667 216.594 82.016C216.221 81.3547 216.034 80.6133 216.034 79.792C216.034 78.9707 216.221 78.2347 216.594 77.584C216.968 76.9333 217.48 76.4267 218.13 76.064C218.792 75.7013 219.538 75.52 220.37 75.52C221.096 75.52 221.741 75.664 222.306 75.952C222.882 76.2293 223.336 76.64 223.666 77.184L222.818 77.76C222.541 77.344 222.189 77.0347 221.762 76.832C221.336 76.6187 220.872 76.512 220.37 76.512C219.762 76.512 219.213 76.6507 218.722 76.928C218.242 77.1947 217.864 77.5787 217.586 78.08C217.32 78.5813 217.186 79.152 217.186 79.792C217.186 80.4427 217.32 81.0187 217.586 81.52C217.864 82.0107 218.242 82.3947 218.722 82.672C219.213 82.9387 219.762 83.072 220.37 83.072C220.872 83.072 221.336 82.9707 221.762 82.768C222.189 82.5653 222.541 82.256 222.818 81.84L223.666 82.416C223.336 82.96 222.882 83.376 222.306 83.664C221.73 83.9413 221.085 84.08 220.37 84.08ZM229.197 84.08C228.387 84.08 227.656 83.8987 227.005 83.536C226.355 83.1627 225.843 82.6507 225.469 82C225.096 81.3493 224.909 80.6133 224.909 79.792C224.909 78.9707 225.096 78.2347 225.469 77.584C225.843 76.9333 226.355 76.4267 227.005 76.064C227.656 75.7013 228.387 75.52 229.197 75.52C230.008 75.52 230.739 75.7013 231.389 76.064C232.04 76.4267 232.547 76.9333 232.909 77.584C233.283 78.2347 233.469 78.9707 233.469 79.792C233.469 80.6133 233.283 81.3493 232.909 82C232.547 82.6507 232.04 83.1627 231.389 83.536C230.739 83.8987 230.008 84.08 229.197 84.08ZM229.197 83.072C229.795 83.072 230.328 82.9387 230.797 82.672C231.277 82.3947 231.651 82.0053 231.917 81.504C232.184 81.0027 232.317 80.432 232.317 79.792C232.317 79.152 232.184 78.5813 231.917 78.08C231.651 77.5787 231.277 77.1947 230.797 76.928C230.328 76.6507 229.795 76.512 229.197 76.512C228.6 76.512 228.061 76.6507 227.581 76.928C227.112 77.1947 226.739 77.5787 226.461 78.08C226.195 78.5813 226.061 79.152 226.061 79.792C226.061 80.432 226.195 81.0027 226.461 81.504C226.739 82.0053 227.112 82.3947 227.581 82.672C228.061 82.9387 228.6 83.072 229.197 83.072ZM241.257 79.648C242.399 79.9147 242.969 80.6027 242.969 81.712C242.969 82.448 242.697 83.0133 242.153 83.408C241.609 83.8027 240.799 84 239.721 84H235.897V75.584H239.609C240.569 75.584 241.321 75.7707 241.865 76.144C242.409 76.5173 242.681 77.0507 242.681 77.744C242.681 78.2027 242.553 78.5973 242.297 78.928C242.052 79.248 241.705 79.488 241.257 79.648ZM237.001 79.328H239.529C240.18 79.328 240.676 79.2053 241.017 78.96C241.369 78.7147 241.545 78.3573 241.545 77.888C241.545 77.4187 241.369 77.0667 241.017 76.832C240.676 76.5973 240.18 76.48 239.529 76.48H237.001V79.328ZM239.673 83.104C240.399 83.104 240.943 82.9867 241.305 82.752C241.668 82.5173 241.849 82.1493 241.849 81.648C241.849 81.1467 241.684 80.7787 241.353 80.544C241.023 80.2987 240.5 80.176 239.785 80.176H237.001V83.104H239.673ZM26.976 105.648C28.1173 105.915 28.688 106.603 28.688 107.712C28.688 108.448 28.416 109.013 27.872 109.408C27.328 109.803 26.5173 110 25.44 110H21.616V101.584H25.328C26.288 101.584 27.04 101.771 27.584 102.144C28.128 102.517 28.4 103.051 28.4 103.744C28.4 104.203 28.272 104.597 28.016 104.928C27.7707 105.248 27.424 105.488 26.976 105.648ZM22.72 105.328H25.248C25.8987 105.328 26.3947 105.205 26.736 104.96C27.088 104.715 27.264 104.357 27.264 103.888C27.264 103.419 27.088 103.067 26.736 102.832C26.3947 102.597 25.8987 102.48 25.248 102.48H22.72V105.328ZM25.392 109.104C26.1173 109.104 26.6613 108.987 27.024 108.752C27.3867 108.517 27.568 108.149 27.568 107.648C27.568 107.147 27.4027 106.779 27.072 106.544C26.7413 106.299 26.2187 106.176 25.504 106.176H22.72V109.104H25.392ZM39.0579 110.08C38.2259 110.08 37.4792 109.899 36.8179 109.536C36.1672 109.173 35.6552 108.667 35.2819 108.016C34.9085 107.355 34.7219 106.613 34.7219 105.792C34.7219 104.971 34.9085 104.235 35.2819 103.584C35.6552 102.933 36.1672 102.427 36.8179 102.064C37.4792 101.701 38.2259 101.52 39.0579 101.52C39.7832 101.52 40.4285 101.664 40.9939 101.952C41.5699 102.229 42.0232 102.64 42.3539 103.184L41.5059 103.76C41.2285 103.344 40.8765 103.035 40.4499 102.832C40.0232 102.619 39.5592 102.512 39.0579 102.512C38.4499 102.512 37.9005 102.651 37.4099 102.928C36.9299 103.195 36.5512 103.579 36.2739 104.08C36.0072 104.581 35.8739 105.152 35.8739 105.792C35.8739 106.443 36.0072 107.019 36.2739 107.52C36.5512 108.011 36.9299 108.395 37.4099 108.672C37.9005 108.939 38.4499 109.072 39.0579 109.072C39.5592 109.072 40.0232 108.971 40.4499 108.768C40.8765 108.565 41.2285 108.256 41.5059 107.84L42.3539 108.416C42.0232 108.96 41.5699 109.376 40.9939 109.664C40.4179 109.941 39.7725 110.08 39.0579 110.08ZM52.1055 101.584V110H50.9695V102.592H45.6895V110H44.5535V101.584H52.1055ZM58.8068 110.08C57.9961 110.08 57.2654 109.899 56.6148 109.536C55.9641 109.163 55.4521 108.651 55.0788 108C54.7054 107.349 54.5188 106.613 54.5188 105.792C54.5188 104.971 54.7054 104.235 55.0788 103.584C55.4521 102.933 55.9641 102.427 56.6148 102.064C57.2654 101.701 57.9961 101.52 58.8068 101.52C59.6174 101.52 60.3481 101.701 60.9988 102.064C61.6494 102.427 62.1561 102.933 62.5188 103.584C62.8921 104.235 63.0788 104.971 63.0788 105.792C63.0788 106.613 62.8921 107.349 62.5188 108C62.1561 108.651 61.6494 109.163 60.9988 109.536C60.3481 109.899 59.6174 110.08 58.8068 110.08ZM58.8068 109.072C59.4041 109.072 59.9374 108.939 60.4068 108.672C60.8868 108.395 61.2601 108.005 61.5268 107.504C61.7934 107.003 61.9268 106.432 61.9268 105.792C61.9268 105.152 61.7934 104.581 61.5268 104.08C61.2601 103.579 60.8868 103.195 60.4068 102.928C59.9374 102.651 59.4041 102.512 58.8068 102.512C58.2094 102.512 57.6708 102.651 57.1908 102.928C56.7214 103.195 56.3481 103.579 56.0707 104.08C55.8041 104.581 55.6708 105.152 55.6708 105.792C55.6708 106.432 55.8041 107.003 56.0707 107.504C56.3481 108.005 56.7214 108.395 57.1908 108.672C57.6708 108.939 58.2094 109.072 58.8068 109.072ZM69.8426 101.52C70.632 101.52 71.3466 101.701 71.9866 102.064C72.6266 102.416 73.128 102.917 73.4906 103.568C73.8533 104.219 74.0346 104.96 74.0346 105.792C74.0346 106.635 73.8533 107.381 73.4906 108.032C73.128 108.683 72.6266 109.189 71.9866 109.552C71.3573 109.904 70.6426 110.08 69.8426 110.08C69.16 110.08 68.5413 109.941 67.9866 109.664C67.4426 109.376 66.9946 108.96 66.6426 108.416V113.104H65.5066V101.584H66.5946V103.248C66.936 102.693 67.384 102.267 67.9386 101.968C68.504 101.669 69.1386 101.52 69.8426 101.52ZM69.7626 109.072C70.3493 109.072 70.8826 108.939 71.3626 108.672C71.8426 108.395 72.216 108.005 72.4826 107.504C72.76 107.003 72.8986 106.432 72.8986 105.792C72.8986 105.152 72.76 104.587 72.4826 104.096C72.216 103.595 71.8426 103.205 71.3626 102.928C70.8826 102.651 70.3493 102.512 69.7626 102.512C69.1653 102.512 68.6266 102.651 68.1466 102.928C67.6773 103.205 67.304 103.595 67.0266 104.096C66.76 104.587 66.6266 105.152 66.6266 105.792C66.6266 106.432 66.76 107.003 67.0266 107.504C67.304 108.005 67.6773 108.395 68.1466 108.672C68.6266 108.939 69.1653 109.072 69.7626 109.072ZM79.3245 101.52C80.4232 101.52 81.2658 101.797 81.8525 102.352C82.4392 102.896 82.7325 103.707 82.7325 104.784V110H81.6445V108.688C81.3885 109.125 81.0098 109.467 80.5085 109.712C80.0178 109.957 79.4312 110.08 78.7485 110.08C77.8098 110.08 77.0632 109.856 76.5085 109.408C75.9538 108.96 75.6765 108.368 75.6765 107.632C75.6765 106.917 75.9325 106.341 76.4445 105.904C76.9672 105.467 77.7938 105.248 78.9245 105.248H81.5965V104.736C81.5965 104.011 81.3938 103.461 80.9885 103.088C80.5832 102.704 79.9912 102.512 79.2125 102.512C78.6792 102.512 78.1672 102.603 77.6765 102.784C77.1858 102.955 76.7645 103.195 76.4125 103.504L75.9005 102.656C76.3272 102.293 76.8392 102.016 77.4365 101.824C78.0338 101.621 78.6632 101.52 79.3245 101.52ZM78.9245 109.184C79.5645 109.184 80.1138 109.04 80.5725 108.752C81.0312 108.453 81.3725 108.027 81.5965 107.472V106.096H78.9565C77.5165 106.096 76.7965 106.597 76.7965 107.6C76.7965 108.091 76.9832 108.48 77.3565 108.768C77.7298 109.045 78.2525 109.184 78.9245 109.184ZM91.0206 110L88.3486 106.48L85.6606 110H84.3806L87.7086 105.68L84.5406 101.584H85.8206L88.3486 104.88L90.8766 101.584H92.1246L88.9566 105.68L92.3166 110H91.0206ZM105.918 101.584V110H104.782V102.592H99.502V110H98.366V101.584H105.918ZM112.619 110.08C111.809 110.08 111.078 109.899 110.427 109.536C109.777 109.163 109.265 108.651 108.891 108C108.518 107.349 108.331 106.613 108.331 105.792C108.331 104.971 108.518 104.235 108.891 103.584C109.265 102.933 109.777 102.427 110.427 102.064C111.078 101.701 111.809 101.52 112.619 101.52C113.43 101.52 114.161 101.701 114.811 102.064C115.462 102.427 115.969 102.933 116.331 103.584C116.705 104.235 116.891 104.971 116.891 105.792C116.891 106.613 116.705 107.349 116.331 108C115.969 108.651 115.462 109.163 114.811 109.536C114.161 109.899 113.43 110.08 112.619 110.08ZM112.619 109.072C113.217 109.072 113.75 108.939 114.219 108.672C114.699 108.395 115.073 108.005 115.339 107.504C115.606 107.003 115.739 106.432 115.739 105.792C115.739 105.152 115.606 104.581 115.339 104.08C115.073 103.579 114.699 103.195 114.219 102.928C113.75 102.651 113.217 102.512 112.619 102.512C112.022 102.512 111.483 102.651 111.003 102.928C110.534 103.195 110.161 103.579 109.883 104.08C109.617 104.581 109.483 105.152 109.483 105.792C109.483 106.432 109.617 107.003 109.883 107.504C110.161 108.005 110.534 108.395 111.003 108.672C111.483 108.939 112.022 109.072 112.619 109.072ZM123.715 98.8H124.899V110H123.715V98.8ZM132.735 98.8C134.164 98.8 135.284 99.1413 136.095 99.824C136.905 100.507 137.311 101.445 137.311 102.64C137.311 103.835 136.905 104.773 136.095 105.456C135.284 106.128 134.164 106.464 132.735 106.464H129.727V110H128.543V98.8H132.735ZM132.703 105.424C133.812 105.424 134.66 105.184 135.247 104.704C135.833 104.213 136.127 103.525 136.127 102.64C136.127 101.733 135.833 101.04 135.247 100.56C134.66 100.069 133.812 99.824 132.703 99.824H129.727V105.424H132.703ZM151.559 101.584V110H150.423V102.592H145.143V110H144.007V101.584H151.559ZM159.124 101.52C159.913 101.52 160.628 101.701 161.268 102.064C161.908 102.416 162.409 102.917 162.772 103.568C163.135 104.219 163.316 104.96 163.316 105.792C163.316 106.635 163.135 107.381 162.772 108.032C162.409 108.683 161.908 109.189 161.268 109.552C160.639 109.904 159.924 110.08 159.124 110.08C158.441 110.08 157.823 109.941 157.268 109.664C156.724 109.376 156.276 108.96 155.924 108.416V113.104H154.788V101.584H155.876V103.248C156.217 102.693 156.665 102.267 157.22 101.968C157.785 101.669 158.42 101.52 159.124 101.52ZM159.044 109.072C159.631 109.072 160.164 108.939 160.644 108.672C161.124 108.395 161.497 108.005 161.764 107.504C162.041 107.003 162.18 106.432 162.18 105.792C162.18 105.152 162.041 104.587 161.764 104.096C161.497 103.595 161.124 103.205 160.644 102.928C160.164 102.651 159.631 102.512 159.044 102.512C158.447 102.512 157.908 102.651 157.428 102.928C156.959 103.205 156.585 103.595 156.308 104.096C156.041 104.587 155.908 105.152 155.908 105.792C155.908 106.432 156.041 107.003 156.308 107.504C156.585 108.005 156.959 108.395 157.428 108.672C157.908 108.939 158.447 109.072 159.044 109.072ZM168.606 101.52C169.704 101.52 170.547 101.797 171.134 102.352C171.72 102.896 172.014 103.707 172.014 104.784V110H170.926V108.688C170.67 109.125 170.291 109.467 169.79 109.712C169.299 109.957 168.712 110.08 168.03 110.08C167.091 110.08 166.344 109.856 165.79 109.408C165.235 108.96 164.958 108.368 164.958 107.632C164.958 106.917 165.214 106.341 165.726 105.904C166.248 105.467 167.075 105.248 168.206 105.248H170.878V104.736C170.878 104.011 170.675 103.461 170.27 103.088C169.864 102.704 169.272 102.512 168.494 102.512C167.96 102.512 167.448 102.603 166.958 102.784C166.467 102.955 166.046 103.195 165.694 103.504L165.182 102.656C165.608 102.293 166.12 102.016 166.718 101.824C167.315 101.621 167.944 101.52 168.606 101.52ZM168.206 109.184C168.846 109.184 169.395 109.04 169.854 108.752C170.312 108.453 170.654 108.027 170.878 107.472V106.096H168.238C166.798 106.096 166.078 106.597 166.078 107.6C166.078 108.091 166.264 108.48 166.638 108.768C167.011 109.045 167.534 109.184 168.206 109.184ZM180.398 105.648C181.539 105.915 182.11 106.603 182.11 107.712C182.11 108.448 181.838 109.013 181.294 109.408C180.75 109.803 179.939 110 178.862 110H175.038V101.584H178.75C179.71 101.584 180.462 101.771 181.006 102.144C181.55 102.517 181.822 103.051 181.822 103.744C181.822 104.203 181.694 104.597 181.438 104.928C181.193 105.248 180.846 105.488 180.398 105.648ZM176.142 105.328H178.67C179.321 105.328 179.817 105.205 180.158 104.96C180.51 104.715 180.686 104.357 180.686 103.888C180.686 103.419 180.51 103.067 180.158 102.832C179.817 102.597 179.321 102.48 178.67 102.48H176.142V105.328ZM178.814 109.104C179.539 109.104 180.083 108.987 180.446 108.752C180.809 108.517 180.99 108.149 180.99 107.648C180.99 107.147 180.825 106.779 180.494 106.544C180.163 106.299 179.641 106.176 178.926 106.176H176.142V109.104H178.814ZM187.668 101.52C188.767 101.52 189.61 101.797 190.196 102.352C190.783 102.896 191.076 103.707 191.076 104.784V110H189.988V108.688C189.732 109.125 189.354 109.467 188.852 109.712C188.362 109.957 187.775 110.08 187.092 110.08C186.154 110.08 185.407 109.856 184.852 109.408C184.298 108.96 184.02 108.368 184.02 107.632C184.02 106.917 184.276 106.341 184.788 105.904C185.311 105.467 186.138 105.248 187.268 105.248H189.94V104.736C189.94 104.011 189.738 103.461 189.332 103.088C188.927 102.704 188.335 102.512 187.556 102.512C187.023 102.512 186.511 102.603 186.02 102.784C185.53 102.955 185.108 103.195 184.756 103.504L184.244 102.656C184.671 102.293 185.183 102.016 185.78 101.824C186.378 101.621 187.007 101.52 187.668 101.52ZM187.268 109.184C187.908 109.184 188.458 109.04 188.916 108.752C189.375 108.453 189.716 108.027 189.94 107.472V106.096H187.3C185.86 106.096 185.14 106.597 185.14 107.6C185.14 108.091 185.327 108.48 185.7 108.768C186.074 109.045 186.596 109.184 187.268 109.184ZM203.508 101.584V110H202.468V103.344L199.06 108.976H198.548L195.14 103.328V110H194.1V101.584H195.252L198.82 107.648L202.452 101.584H203.508ZM216.289 105.648C217.43 105.915 218.001 106.603 218.001 107.712C218.001 108.448 217.729 109.013 217.185 109.408C216.641 109.803 215.83 110 214.753 110H210.929V101.584H214.641C215.601 101.584 216.353 101.771 216.897 102.144C217.441 102.517 217.713 103.051 217.713 103.744C217.713 104.203 217.585 104.597 217.329 104.928C217.083 105.248 216.737 105.488 216.289 105.648ZM212.033 105.328H214.561C215.211 105.328 215.707 105.205 216.049 104.96C216.401 104.715 216.577 104.357 216.577 103.888C216.577 103.419 216.401 103.067 216.049 102.832C215.707 102.597 215.211 102.48 214.561 102.48H212.033V105.328ZM214.705 109.104C215.43 109.104 215.974 108.987 216.337 108.752C216.699 108.517 216.881 108.149 216.881 107.648C216.881 107.147 216.715 106.779 216.385 106.544C216.054 106.299 215.531 106.176 214.817 106.176H212.033V109.104H214.705ZM230.802 102.592H225.986V110H224.85V101.584H230.802V102.592ZM235.526 110.08C234.715 110.08 233.984 109.899 233.334 109.536C232.683 109.163 232.171 108.651 231.798 108C231.424 107.349 231.238 106.613 231.238 105.792C231.238 104.971 231.424 104.235 231.798 103.584C232.171 102.933 232.683 102.427 233.334 102.064C233.984 101.701 234.715 101.52 235.526 101.52C236.336 101.52 237.067 101.701 237.718 102.064C238.368 102.427 238.875 102.933 239.238 103.584C239.611 104.235 239.798 104.971 239.798 105.792C239.798 106.613 239.611 107.349 239.238 108C238.875 108.651 238.368 109.163 237.718 109.536C237.067 109.899 236.336 110.08 235.526 110.08ZM235.526 109.072C236.123 109.072 236.656 108.939 237.126 108.672C237.606 108.395 237.979 108.005 238.246 107.504C238.512 107.003 238.646 106.432 238.646 105.792C238.646 105.152 238.512 104.581 238.246 104.08C237.979 103.579 237.606 103.195 237.126 102.928C236.656 102.651 236.123 102.512 235.526 102.512C234.928 102.512 234.39 102.651 233.91 102.928C233.44 103.195 233.067 103.579 232.789 104.08C232.523 104.581 232.39 105.152 232.39 105.792C232.39 106.432 232.523 107.003 232.789 107.504C233.067 108.005 233.44 108.395 233.91 108.672C234.39 108.939 234.928 109.072 235.526 109.072ZM250.387 109.008V112.032H249.315V110H241.779V112.032H240.707V109.008H241.187C241.752 108.976 242.136 108.56 242.339 107.76C242.541 106.96 242.68 105.84 242.755 104.4L242.867 101.584H249.075V109.008H250.387ZM243.795 104.464C243.741 105.659 243.64 106.645 243.491 107.424C243.341 108.192 243.075 108.72 242.691 109.008H247.939V102.592H243.891L243.795 104.464Z" fill="#8A8A8A"/>
<path d="M8 1H384V-1H8V1ZM391 8V129H393V8H391ZM384 136H8V138H384V136ZM1 129V8H-1V129H1ZM8 136C4.134 136 1 132.866 1 129H-1C-1 133.971 3.02943 138 8 138V136ZM391 129C391 132.866 387.866 136 384 136V138C388.971 138 393 133.971 393 129H391ZM384 1C387.866 1 391 4.13401 391 8H393C393 3.02944 388.971 -1 384 -1V1ZM8 -1C3.02944 -1 -1 3.02943 -1 8H1C1 4.134 4.13401 1 8 1V-1Z" fill="url(#paint0_linear_575_369)"/>
<defs>
<linearGradient id="paint0_linear_575_369" x1="0" y1="0" x2="60.5" y2="93" gradientUnits="userSpaceOnUse">
<stop stop-color="#DA4533"/>
<stop offset="1" stop-color="#DA4533" stop-opacity="0"/>
</linearGradient>
</defs>
</svg>
