<svg width="392" height="137" viewBox="0 0 392 137" fill="none" xmlns="http://www.w3.org/2000/svg">
<path d="M0 8C0 3.58172 3.58172 0 8 0H384C388.418 0 392 3.58172 392 8V129C392 133.418 388.418 137 384 137H8C3.58172 137 0 133.418 0 129V8Z" fill="white" fill-opacity="0.05"/>
<path d="M43.652 39.964L22.52 50.116V47.488L38.54 39.64L22.52 31.792V29.092L43.652 39.316V39.964ZM61.1458 49H46.8538V47.416L52.0738 42.16C53.2258 40.96 54.1858 39.868 54.9538 38.884C55.7458 37.9 56.3338 36.904 56.7178 35.896C57.1018 34.888 57.2938 33.748 57.2938 32.476C57.2938 31.204 56.9338 30.184 56.2138 29.416C55.4938 28.648 54.4738 28.264 53.1538 28.264C52.0258 28.264 51.0538 28.504 50.2378 28.984C49.4458 29.464 48.7258 30.364 48.0778 31.684L46.9978 31.252C47.5738 29.5 48.4858 28.144 49.7338 27.184C51.0058 26.224 52.5418 25.744 54.3418 25.744C55.7098 25.744 56.9098 26.008 57.9418 26.536C58.9978 27.04 59.8258 27.76 60.4258 28.696C61.0258 29.608 61.3258 30.688 61.3258 31.936C61.3258 33.04 61.0978 34.084 60.6418 35.068C60.1858 36.028 59.5018 37.024 58.5898 38.056C57.7018 39.064 56.5978 40.204 55.2778 41.476L50.7058 45.652V45.868L53.1538 45.724H57.8698C58.8298 45.724 59.5018 45.508 59.8858 45.076C60.2698 44.62 60.6658 43.852 61.0738 42.772H62.2978L61.1458 49ZM69.394 49.504C67.906 49.504 66.814 49.336 66.118 49C65.446 48.64 65.11 48.112 65.11 47.416C65.11 46.96 65.242 46.552 65.506 46.192C65.794 45.808 66.202 45.616 66.73 45.616C67.114 45.616 67.486 45.724 67.846 45.94C68.23 46.132 68.602 46.36 68.962 46.624C69.346 46.888 69.766 47.128 70.222 47.344C70.678 47.536 71.194 47.632 71.77 47.632C72.634 47.632 73.402 47.476 74.074 47.164C74.77 46.828 75.322 46.3 75.73 45.58C76.138 44.836 76.342 43.852 76.342 42.628C76.342 41.404 76.09 40.42 75.586 39.676C75.106 38.908 74.434 38.332 73.57 37.948C72.706 37.54 71.71 37.264 70.582 37.12C69.454 36.976 68.254 36.892 66.982 36.868L66.478 36.184L68.818 26.32H79.114L78.538 29.56H69.718L68.818 33.448C69.922 33.52 71.002 33.652 72.058 33.844C73.114 34.012 74.098 34.264 75.01 34.6C75.922 34.936 76.726 35.392 77.422 35.968C78.118 36.544 78.658 37.252 79.042 38.092C79.45 38.932 79.654 39.94 79.654 41.116C79.654 42.556 79.39 43.804 78.862 44.86C78.334 45.916 77.602 46.792 76.666 47.488C75.754 48.16 74.674 48.664 73.426 49C72.202 49.336 70.858 49.504 69.394 49.504ZM90.1342 49.396C88.6942 49.396 87.4702 49.084 86.4622 48.46C85.4542 47.836 84.6382 46.984 84.0142 45.904C83.3902 44.8 82.9342 43.528 82.6462 42.088C82.3582 40.624 82.2142 39.088 82.2142 37.48C82.2142 35.152 82.5142 33.124 83.1142 31.396C83.7382 29.644 84.6382 28.288 85.8142 27.328C87.0142 26.368 88.4782 25.888 90.2062 25.888C91.7902 25.888 93.1702 26.344 94.3462 27.256C95.5222 28.168 96.4342 29.488 97.0822 31.216C97.7542 32.944 98.0902 35.068 98.0902 37.588C98.0902 39.172 97.9342 40.672 97.6222 42.088C97.3342 43.504 96.8782 44.764 96.2542 45.868C95.6302 46.948 94.8142 47.812 93.8062 48.46C92.7982 49.084 91.5742 49.396 90.1342 49.396ZM90.1342 47.992C91.3582 47.992 92.3062 47.152 92.9782 45.472C93.6502 43.768 93.9862 41.212 93.9862 37.804C93.9862 34.204 93.6622 31.54 93.0142 29.812C92.3662 28.084 91.3942 27.22 90.0982 27.22C88.8742 27.22 87.9262 28.084 87.2542 29.812C86.5822 31.516 86.2462 34.132 86.2462 37.66C86.2462 41.092 86.5822 43.672 87.2542 45.4C87.9262 47.128 88.8862 47.992 90.1342 47.992ZM107.958 49.396C106.518 49.396 105.294 49.084 104.286 48.46C103.278 47.836 102.462 46.984 101.838 45.904C101.214 44.8 100.758 43.528 100.47 42.088C100.182 40.624 100.038 39.088 100.038 37.48C100.038 35.152 100.338 33.124 100.938 31.396C101.562 29.644 102.462 28.288 103.638 27.328C104.838 26.368 106.302 25.888 108.03 25.888C109.614 25.888 110.994 26.344 112.17 27.256C113.346 28.168 114.258 29.488 114.906 31.216C115.578 32.944 115.914 35.068 115.914 37.588C115.914 39.172 115.758 40.672 115.446 42.088C115.158 43.504 114.702 44.764 114.078 45.868C113.454 46.948 112.638 47.812 111.63 48.46C110.622 49.084 109.398 49.396 107.958 49.396ZM107.958 47.992C109.182 47.992 110.13 47.152 110.802 45.472C111.474 43.768 111.81 41.212 111.81 37.804C111.81 34.204 111.486 31.54 110.838 29.812C110.19 28.084 109.218 27.22 107.922 27.22C106.698 27.22 105.75 28.084 105.078 29.812C104.406 31.516 104.07 34.132 104.07 37.66C104.07 41.092 104.406 43.672 105.078 45.4C105.75 47.128 106.71 47.992 107.958 47.992Z" fill="white"/>
<path d="M26.8 84.096C25.6907 84.096 24.6827 83.8507 23.776 83.36C22.88 82.8587 22.176 82.176 21.664 81.312C21.1627 80.448 20.912 79.4773 20.912 78.4C20.912 77.3227 21.1627 76.352 21.664 75.488C22.176 74.624 22.88 73.9467 23.776 73.456C24.6827 72.9547 25.6907 72.704 26.8 72.704C27.9093 72.704 28.9067 72.9493 29.792 73.44C30.688 73.9307 31.392 74.6133 31.904 75.488C32.416 76.352 32.672 77.3227 32.672 78.4C32.672 79.4773 32.416 80.4533 31.904 81.328C31.392 82.192 30.688 82.8693 29.792 83.36C28.9067 83.8507 27.9093 84.096 26.8 84.096ZM26.8 83.04C27.6853 83.04 28.4853 82.8427 29.2 82.448C29.9147 82.0427 30.4747 81.488 30.88 80.784C31.2853 80.0693 31.488 79.2747 31.488 78.4C31.488 77.5253 31.2853 76.736 30.88 76.032C30.4747 75.3173 29.9147 74.7627 29.2 74.368C28.4853 73.9627 27.6853 73.76 26.8 73.76C25.9147 73.76 25.1093 73.9627 24.384 74.368C23.6693 74.7627 23.104 75.3173 22.688 76.032C22.2827 76.736 22.08 77.5253 22.08 78.4C22.08 79.2747 22.2827 80.0693 22.688 80.784C23.104 81.488 23.6693 82.0427 24.384 82.448C25.1093 82.8427 25.9147 83.04 26.8 83.04ZM38.2814 80.256H36.3614V84H35.2254V75.584H36.3614V79.28H38.2974L41.2574 75.584H42.4894L39.1774 79.664L42.7294 84H41.3854L38.2814 80.256ZM47.262 75.52C48.3607 75.52 49.2033 75.7973 49.79 76.352C50.3767 76.896 50.67 77.7067 50.67 78.784V84H49.582V82.688C49.326 83.1253 48.9473 83.4667 48.446 83.712C47.9553 83.9573 47.3687 84.08 46.686 84.08C45.7473 84.08 45.0007 83.856 44.446 83.408C43.8913 82.96 43.614 82.368 43.614 81.632C43.614 80.9173 43.87 80.3413 44.382 79.904C44.9047 79.4667 45.7313 79.248 46.862 79.248H49.534V78.736C49.534 78.0107 49.3313 77.4613 48.926 77.088C48.5207 76.704 47.9287 76.512 47.15 76.512C46.6167 76.512 46.1047 76.6027 45.614 76.784C45.1233 76.9547 44.702 77.1947 44.35 77.504L43.838 76.656C44.2647 76.2933 44.7767 76.016 45.374 75.824C45.9713 75.6213 46.6007 75.52 47.262 75.52ZM46.862 83.184C47.502 83.184 48.0513 83.04 48.51 82.752C48.9687 82.4533 49.31 82.0267 49.534 81.472V80.096H46.894C45.454 80.096 44.734 80.5973 44.734 81.6C44.734 82.0907 44.9207 82.48 45.294 82.768C45.6673 83.0453 46.19 83.184 46.862 83.184ZM57.6183 79.616C58.2156 79.7547 58.6743 79.9947 58.9943 80.336C59.3249 80.6773 59.4903 81.0933 59.4903 81.584C59.4903 82.0747 59.3196 82.512 58.9783 82.896C58.6476 83.28 58.1943 83.5787 57.6183 83.792C57.0423 83.9947 56.4076 84.096 55.7143 84.096C55.1063 84.096 54.5089 84.0107 53.9223 83.84C53.3356 83.6587 52.8236 83.3973 52.3863 83.056L52.7703 82.208C53.1543 82.496 53.6023 82.72 54.1143 82.88C54.6263 83.04 55.1436 83.12 55.6663 83.12C56.4449 83.12 57.0796 82.976 57.5703 82.688C58.0716 82.3893 58.3223 81.9893 58.3223 81.488C58.3223 81.04 58.1196 80.6933 57.7143 80.448C57.3089 80.192 56.7543 80.064 56.0503 80.064H54.6103V79.232H55.9863C56.6156 79.232 57.1223 79.1147 57.5063 78.88C57.8903 78.6347 58.0823 78.3093 58.0823 77.904C58.0823 77.456 57.8636 77.104 57.4263 76.848C56.9996 76.592 56.4396 76.464 55.7463 76.464C54.8396 76.464 53.9436 76.6933 53.0583 77.152L52.7383 76.272C53.7409 75.7493 54.7809 75.488 55.8583 75.488C56.4983 75.488 57.0743 75.584 57.5863 75.776C58.1089 75.9573 58.5143 76.2187 58.8023 76.56C59.1009 76.9013 59.2503 77.296 59.2503 77.744C59.2503 78.1707 59.1009 78.5493 58.8023 78.88C58.5143 79.2107 58.1196 79.456 57.6183 79.616ZM64.9651 75.52C66.0638 75.52 66.9065 75.7973 67.4931 76.352C68.0798 76.896 68.3731 77.7067 68.3731 78.784V84H67.2851V82.688C67.0291 83.1253 66.6505 83.4667 66.1491 83.712C65.6585 83.9573 65.0718 84.08 64.3891 84.08C63.4505 84.08 62.7038 83.856 62.1491 83.408C61.5945 82.96 61.3171 82.368 61.3171 81.632C61.3171 80.9173 61.5731 80.3413 62.0851 79.904C62.6078 79.4667 63.4345 79.248 64.5651 79.248H67.2371V78.736C67.2371 78.0107 67.0345 77.4613 66.6291 77.088C66.2238 76.704 65.6318 76.512 64.8531 76.512C64.3198 76.512 63.8078 76.6027 63.3171 76.784C62.8265 76.9547 62.4051 77.1947 62.0531 77.504L61.5411 76.656C61.9678 76.2933 62.4798 76.016 63.0771 75.824C63.6745 75.6213 64.3038 75.52 64.9651 75.52ZM64.5651 83.184C65.2051 83.184 65.7545 83.04 66.2131 82.752C66.6718 82.4533 67.0131 82.0267 67.2371 81.472V80.096H64.5971C63.1571 80.096 62.4371 80.5973 62.4371 81.6C62.4371 82.0907 62.6238 82.48 62.9971 82.768C63.3705 83.0453 63.8931 83.184 64.5651 83.184ZM71.3973 75.584H72.5333V79.312H77.8293V75.584H78.9653V84H77.8293V80.288H72.5333V84H71.3973V75.584ZM82.1941 75.584H83.3301V82.272L88.9461 75.584H89.9541V84H88.8181V77.312L83.2181 84H82.1941V75.584ZM93.2098 75.584H94.3458V82.272L99.9618 75.584H100.97V84H99.8338V77.312L94.2338 84H93.2098V75.584ZM97.0338 74.368C96.3084 74.368 95.7324 74.1867 95.3058 73.824C94.8791 73.4613 94.6604 72.9493 94.6498 72.288H95.4658C95.4764 72.704 95.6258 73.04 95.9138 73.296C96.2018 73.5413 96.5751 73.664 97.0338 73.664C97.4924 73.664 97.8658 73.5413 98.1538 73.296C98.4524 73.04 98.6071 72.704 98.6178 72.288H99.4338C99.4231 72.9493 99.1991 73.4613 98.7618 73.824C98.3351 74.1867 97.7591 74.368 97.0338 74.368ZM115.645 75.52C116.434 75.52 117.144 75.7013 117.773 76.064C118.413 76.4267 118.914 76.9333 119.277 77.584C119.64 78.2347 119.821 78.9707 119.821 79.792C119.821 80.6133 119.64 81.3493 119.277 82C118.914 82.6507 118.413 83.1627 117.773 83.536C117.144 83.8987 116.434 84.08 115.645 84.08C114.898 84.08 114.221 83.92 113.613 83.6C113.005 83.2693 112.509 82.816 112.125 82.24C111.752 81.664 111.533 81.0027 111.469 80.256H109.549V84H108.413V75.584H109.549V79.216H111.485C111.57 78.4907 111.8 77.8507 112.173 77.296C112.557 76.7307 113.048 76.2933 113.645 75.984C114.242 75.6747 114.909 75.52 115.645 75.52ZM115.645 83.088C116.221 83.088 116.738 82.9493 117.197 82.672C117.666 82.3947 118.034 82.0053 118.301 81.504C118.568 81.0027 118.701 80.432 118.701 79.792C118.701 79.152 118.568 78.5813 118.301 78.08C118.034 77.5787 117.666 77.1947 117.197 76.928C116.738 76.6507 116.221 76.512 115.645 76.512C115.069 76.512 114.546 76.6507 114.077 76.928C113.618 77.1947 113.256 77.5787 112.989 78.08C112.722 78.5813 112.589 79.152 112.589 79.792C112.589 80.432 112.722 81.0027 112.989 81.504C113.256 82.0053 113.618 82.3947 114.077 82.672C114.546 82.9493 115.069 83.088 115.645 83.088ZM126.593 75.52C127.382 75.52 128.097 75.7013 128.737 76.064C129.377 76.416 129.878 76.9173 130.241 77.568C130.603 78.2187 130.785 78.96 130.785 79.792C130.785 80.6347 130.603 81.3813 130.241 82.032C129.878 82.6827 129.377 83.1893 128.737 83.552C128.107 83.904 127.393 84.08 126.593 84.08C125.91 84.08 125.291 83.9413 124.737 83.664C124.193 83.376 123.745 82.96 123.393 82.416V87.104H122.257V75.584H123.345V77.248C123.686 76.6933 124.134 76.2667 124.689 75.968C125.254 75.6693 125.889 75.52 126.593 75.52ZM126.513 83.072C127.099 83.072 127.633 82.9387 128.113 82.672C128.593 82.3947 128.966 82.0053 129.233 81.504C129.51 81.0027 129.649 80.432 129.649 79.792C129.649 79.152 129.51 78.5867 129.233 78.096C128.966 77.5947 128.593 77.2053 128.113 76.928C127.633 76.6507 127.099 76.512 126.513 76.512C125.915 76.512 125.377 76.6507 124.897 76.928C124.427 77.2053 124.054 77.5947 123.777 78.096C123.51 78.5867 123.377 79.152 123.377 79.792C123.377 80.432 123.51 81.0027 123.777 81.504C124.054 82.0053 124.427 82.3947 124.897 82.672C125.377 82.9387 125.915 83.072 126.513 83.072ZM133.225 75.584H134.361V82.272L139.977 75.584H140.985V84H139.849V77.312L134.249 84H133.225V75.584ZM152.449 83.008V86.032H151.377V84H143.841V86.032H142.769V83.008H143.249C143.814 82.976 144.198 82.56 144.401 81.76C144.604 80.96 144.742 79.84 144.817 78.4L144.929 75.584H151.137V83.008H152.449ZM145.857 78.464C145.804 79.6587 145.702 80.6453 145.553 81.424C145.404 82.192 145.137 82.72 144.753 83.008H150.001V76.592H145.953L145.857 78.464ZM154.663 75.584H155.799V82.272L161.415 75.584H162.423V84H161.287V77.312L155.687 84H154.663V75.584ZM172.031 75.584V84H170.895V80.496C169.924 80.9227 168.969 81.136 168.031 81.136C167.017 81.136 166.228 80.9067 165.663 80.448C165.097 79.9787 164.815 79.28 164.815 78.352V75.584H165.951V78.288C165.951 78.9173 166.153 79.3973 166.559 79.728C166.964 80.048 167.524 80.208 168.239 80.208C169.028 80.208 169.913 80 170.895 79.584V75.584H172.031ZM182.617 80.144H175.577C175.641 81.0187 175.977 81.728 176.585 82.272C177.193 82.8053 177.961 83.072 178.889 83.072C179.411 83.072 179.891 82.9813 180.329 82.8C180.766 82.608 181.145 82.3307 181.465 81.968L182.105 82.704C181.731 83.152 181.262 83.4933 180.697 83.728C180.142 83.9627 179.529 84.08 178.857 84.08C177.993 84.08 177.225 83.8987 176.553 83.536C175.891 83.1627 175.374 82.6507 175.001 82C174.627 81.3493 174.441 80.6133 174.441 79.792C174.441 78.9707 174.617 78.2347 174.969 77.584C175.331 76.9333 175.822 76.4267 176.441 76.064C177.07 75.7013 177.774 75.52 178.553 75.52C179.331 75.52 180.03 75.7013 180.649 76.064C181.267 76.4267 181.753 76.9333 182.105 77.584C182.457 78.224 182.633 78.96 182.633 79.792L182.617 80.144ZM178.553 76.496C177.742 76.496 177.059 76.7573 176.505 77.28C175.961 77.792 175.651 78.464 175.577 79.296H181.545C181.47 78.464 181.155 77.792 180.601 77.28C180.057 76.7573 179.374 76.496 178.553 76.496ZM188.667 84.08C187.835 84.08 187.089 83.8987 186.427 83.536C185.777 83.1733 185.265 82.6667 184.891 82.016C184.518 81.3547 184.331 80.6133 184.331 79.792C184.331 78.9707 184.518 78.2347 184.891 77.584C185.265 76.9333 185.777 76.4267 186.427 76.064C187.089 75.7013 187.835 75.52 188.667 75.52C189.393 75.52 190.038 75.664 190.603 75.952C191.179 76.2293 191.633 76.64 191.963 77.184L191.115 77.76C190.838 77.344 190.486 77.0347 190.059 76.832C189.633 76.6187 189.169 76.512 188.667 76.512C188.059 76.512 187.51 76.6507 187.019 76.928C186.539 77.1947 186.161 77.5787 185.883 78.08C185.617 78.5813 185.483 79.152 185.483 79.792C185.483 80.4427 185.617 81.0187 185.883 81.52C186.161 82.0107 186.539 82.3947 187.019 82.672C187.51 82.9387 188.059 83.072 188.667 83.072C189.169 83.072 189.633 82.9707 190.059 82.768C190.486 82.5653 190.838 82.256 191.115 81.84L191.963 82.416C191.633 82.96 191.179 83.376 190.603 83.664C190.027 83.9413 189.382 84.08 188.667 84.08ZM197.219 80.256H195.299V84H194.163V75.584H195.299V79.28H197.235L200.195 75.584H201.427L198.115 79.664L201.667 84H200.323L197.219 80.256ZM206.635 84.08C205.824 84.08 205.094 83.8987 204.443 83.536C203.792 83.1627 203.28 82.6507 202.907 82C202.534 81.3493 202.347 80.6133 202.347 79.792C202.347 78.9707 202.534 78.2347 202.907 77.584C203.28 76.9333 203.792 76.4267 204.443 76.064C205.094 75.7013 205.824 75.52 206.635 75.52C207.446 75.52 208.176 75.7013 208.827 76.064C209.478 76.4267 209.984 76.9333 210.347 77.584C210.72 78.2347 210.907 78.9707 210.907 79.792C210.907 80.6133 210.72 81.3493 210.347 82C209.984 82.6507 209.478 83.1627 208.827 83.536C208.176 83.8987 207.446 84.08 206.635 84.08ZM206.635 83.072C207.232 83.072 207.766 82.9387 208.235 82.672C208.715 82.3947 209.088 82.0053 209.355 81.504C209.622 81.0027 209.755 80.432 209.755 79.792C209.755 79.152 209.622 78.5813 209.355 78.08C209.088 77.5787 208.715 77.1947 208.235 76.928C207.766 76.6507 207.232 76.512 206.635 76.512C206.038 76.512 205.499 76.6507 205.019 76.928C204.55 77.1947 204.176 77.5787 203.899 78.08C203.632 78.5813 203.499 79.152 203.499 79.792C203.499 80.432 203.632 81.0027 203.899 81.504C204.176 82.0053 204.55 82.3947 205.019 82.672C205.499 82.9387 206.038 83.072 206.635 83.072ZM213.335 75.584H214.471V82.272L220.087 75.584H221.095V84H219.959V77.312L214.359 84H213.335V75.584ZM217.159 74.368C216.433 74.368 215.857 74.1867 215.431 73.824C215.004 73.4613 214.785 72.9493 214.775 72.288H215.591C215.601 72.704 215.751 73.04 216.039 73.296C216.327 73.5413 216.7 73.664 217.159 73.664C217.617 73.664 217.991 73.5413 218.279 73.296C218.577 73.04 218.732 72.704 218.743 72.288H219.559C219.548 72.9493 219.324 73.4613 218.887 73.824C218.46 74.1867 217.884 74.368 217.159 74.368ZM29.168 101.584V110H28.032V102.592H22.752V110H21.616V101.584H29.168ZM35.8693 110.08C35.0586 110.08 34.3279 109.899 33.6773 109.536C33.0266 109.163 32.5146 108.651 32.1413 108C31.7679 107.349 31.5813 106.613 31.5813 105.792C31.5813 104.971 31.7679 104.235 32.1413 103.584C32.5146 102.933 33.0266 102.427 33.6773 102.064C34.3279 101.701 35.0586 101.52 35.8693 101.52C36.6799 101.52 37.4106 101.701 38.0613 102.064C38.7119 102.427 39.2186 102.933 39.5813 103.584C39.9546 104.235 40.1413 104.971 40.1413 105.792C40.1413 106.613 39.9546 107.349 39.5813 108C39.2186 108.651 38.7119 109.163 38.0613 109.536C37.4106 109.899 36.6799 110.08 35.8693 110.08ZM35.8693 109.072C36.4666 109.072 36.9999 108.939 37.4693 108.672C37.9493 108.395 38.3226 108.005 38.5893 107.504C38.8559 107.003 38.9893 106.432 38.9893 105.792C38.9893 105.152 38.8559 104.581 38.5893 104.08C38.3226 103.579 37.9493 103.195 37.4693 102.928C36.9999 102.651 36.4666 102.512 35.8693 102.512C35.2719 102.512 34.7333 102.651 34.2533 102.928C33.7839 103.195 33.4106 103.579 33.1332 104.08C32.8666 104.581 32.7333 105.152 32.7333 105.792C32.7333 106.432 32.8666 107.003 33.1332 107.504C33.4106 108.005 33.7839 108.395 34.2533 108.672C34.7333 108.939 35.2719 109.072 35.8693 109.072ZM51.9771 101.584V110H50.9371V103.344L47.5291 108.976H47.0171L43.6091 103.328V110H42.5691V101.584H43.7211L47.2891 107.648L50.9211 101.584H51.9771ZM58.6818 110.08C57.8711 110.08 57.1404 109.899 56.4898 109.536C55.8391 109.163 55.3271 108.651 54.9538 108C54.5804 107.349 54.3938 106.613 54.3938 105.792C54.3938 104.971 54.5804 104.235 54.9538 103.584C55.3271 102.933 55.8391 102.427 56.4898 102.064C57.1404 101.701 57.8711 101.52 58.6818 101.52C59.4924 101.52 60.2231 101.701 60.8738 102.064C61.5244 102.427 62.0311 102.933 62.3938 103.584C62.7671 104.235 62.9538 104.971 62.9538 105.792C62.9538 106.613 62.7671 107.349 62.3938 108C62.0311 108.651 61.5244 109.163 60.8738 109.536C60.2231 109.899 59.4924 110.08 58.6818 110.08ZM58.6818 109.072C59.2791 109.072 59.8124 108.939 60.2818 108.672C60.7618 108.395 61.1351 108.005 61.4018 107.504C61.6684 107.003 61.8018 106.432 61.8018 105.792C61.8018 105.152 61.6684 104.581 61.4018 104.08C61.1351 103.579 60.7618 103.195 60.2818 102.928C59.8124 102.651 59.2791 102.512 58.6818 102.512C58.0844 102.512 57.5458 102.651 57.0658 102.928C56.5964 103.195 56.2231 103.579 55.9457 104.08C55.6791 104.581 55.5458 105.152 55.5458 105.792C55.5458 106.432 55.6791 107.003 55.9457 107.504C56.2231 108.005 56.5964 108.395 57.0658 108.672C57.5458 108.939 58.0844 109.072 58.6818 109.072ZM76.9976 101.584V110H65.3816V101.584H66.5176V109.008H70.6456V101.584H71.7816V109.008H75.8616V101.584H76.9976ZM78.2936 109.008V111.84H77.2216V110H75.7976V109.008H78.2936ZM80.241 101.584H81.377V108.272L86.993 101.584H88.001V110H86.865V103.312L81.265 110H80.241V101.584ZM98.5001 106.256H96.5801V110H95.4441V101.584H96.5801V105.28H98.5161L101.476 101.584H102.708L99.3961 105.664L102.948 110H101.604L98.5001 106.256ZM107.916 110.08C107.105 110.08 106.375 109.899 105.724 109.536C105.073 109.163 104.561 108.651 104.188 108C103.815 107.349 103.628 106.613 103.628 105.792C103.628 104.971 103.815 104.235 104.188 103.584C104.561 102.933 105.073 102.427 105.724 102.064C106.375 101.701 107.105 101.52 107.916 101.52C108.727 101.52 109.457 101.701 110.108 102.064C110.759 102.427 111.265 102.933 111.628 103.584C112.001 104.235 112.188 104.971 112.188 105.792C112.188 106.613 112.001 107.349 111.628 108C111.265 108.651 110.759 109.163 110.108 109.536C109.457 109.899 108.727 110.08 107.916 110.08ZM107.916 109.072C108.513 109.072 109.047 108.939 109.516 108.672C109.996 108.395 110.369 108.005 110.636 107.504C110.903 107.003 111.036 106.432 111.036 105.792C111.036 105.152 110.903 104.581 110.636 104.08C110.369 103.579 109.996 103.195 109.516 102.928C109.047 102.651 108.513 102.512 107.916 102.512C107.319 102.512 106.78 102.651 106.3 102.928C105.831 103.195 105.457 103.579 105.18 104.08C104.913 104.581 104.78 105.152 104.78 105.792C104.78 106.432 104.913 107.003 105.18 107.504C105.457 108.005 105.831 108.395 106.3 108.672C106.78 108.939 107.319 109.072 107.916 109.072ZM124.024 101.584V110H122.984V103.344L119.576 108.976H119.064L115.656 103.328V110H114.616V101.584H115.768L119.336 107.648L122.968 101.584H124.024ZM134.809 101.584V110H133.673V102.592H128.393V110H127.257V101.584H134.809ZM140.934 101.52C142.033 101.52 142.875 101.797 143.462 102.352C144.049 102.896 144.342 103.707 144.342 104.784V110H143.254V108.688C142.998 109.125 142.619 109.467 142.118 109.712C141.627 109.957 141.041 110.08 140.358 110.08C139.419 110.08 138.673 109.856 138.118 109.408C137.563 108.96 137.286 108.368 137.286 107.632C137.286 106.917 137.542 106.341 138.054 105.904C138.577 105.467 139.403 105.248 140.534 105.248H143.206V104.736C143.206 104.011 143.003 103.461 142.598 103.088C142.193 102.704 141.601 102.512 140.822 102.512C140.289 102.512 139.777 102.603 139.286 102.784C138.795 102.955 138.374 103.195 138.022 103.504L137.51 102.656C137.937 102.293 138.449 102.016 139.046 101.824C139.643 101.621 140.273 101.52 140.934 101.52ZM140.534 109.184C141.174 109.184 141.723 109.04 142.182 108.752C142.641 108.453 142.982 108.027 143.206 107.472V106.096H140.566C139.126 106.096 138.406 106.597 138.406 107.6C138.406 108.091 138.593 108.48 138.966 108.768C139.339 109.045 139.862 109.184 140.534 109.184ZM147.366 101.584H148.502V105.312H153.798V101.584H154.934V110H153.798V106.288H148.502V110H147.366V101.584ZM158.163 101.584H159.299V108.272L164.915 101.584H165.923V110H164.787V103.312L159.187 110H158.163V101.584ZM175.642 101.584V110H174.603V107.216H171.963H171.643L169.691 110H168.459L170.555 107.056C169.904 106.875 169.403 106.565 169.051 106.128C168.699 105.691 168.523 105.136 168.523 104.464C168.523 103.525 168.843 102.811 169.483 102.32C170.123 101.829 170.997 101.584 172.107 101.584H175.642ZM169.674 104.496C169.674 105.744 170.469 106.368 172.059 106.368H174.603V102.592H172.139C170.496 102.592 169.674 103.227 169.674 104.496ZM188.29 101.584V110H187.25V103.344L183.842 108.976H183.33L179.922 103.328V110H178.882V101.584H180.034L183.602 107.648L187.234 101.584H188.29ZM201.07 105.648C202.211 105.915 202.782 106.603 202.782 107.712C202.782 108.448 202.51 109.013 201.966 109.408C201.422 109.803 200.611 110 199.534 110H195.71V101.584H199.422C200.382 101.584 201.134 101.771 201.678 102.144C202.222 102.517 202.494 103.051 202.494 103.744C202.494 104.203 202.366 104.597 202.11 104.928C201.864 105.248 201.518 105.488 201.07 105.648ZM196.814 105.328H199.342C199.992 105.328 200.488 105.205 200.83 104.96C201.182 104.715 201.358 104.357 201.358 103.888C201.358 103.419 201.182 103.067 200.83 102.832C200.488 102.597 199.992 102.48 199.342 102.48H196.814V105.328ZM199.486 109.104C200.211 109.104 200.755 108.987 201.118 108.752C201.48 108.517 201.662 108.149 201.662 107.648C201.662 107.147 201.496 106.779 201.166 106.544C200.835 106.299 200.312 106.176 199.598 106.176H196.814V109.104H199.486ZM215.584 102.592H210.768V110H209.632V101.584H215.584V102.592ZM220.307 110.08C219.496 110.08 218.765 109.899 218.115 109.536C217.464 109.163 216.952 108.651 216.579 108C216.205 107.349 216.019 106.613 216.019 105.792C216.019 104.971 216.205 104.235 216.579 103.584C216.952 102.933 217.464 102.427 218.115 102.064C218.765 101.701 219.496 101.52 220.307 101.52C221.117 101.52 221.848 101.701 222.499 102.064C223.149 102.427 223.656 102.933 224.019 103.584C224.392 104.235 224.579 104.971 224.579 105.792C224.579 106.613 224.392 107.349 224.019 108C223.656 108.651 223.149 109.163 222.499 109.536C221.848 109.899 221.117 110.08 220.307 110.08ZM220.307 109.072C220.904 109.072 221.437 108.939 221.907 108.672C222.387 108.395 222.76 108.005 223.027 107.504C223.293 107.003 223.427 106.432 223.427 105.792C223.427 105.152 223.293 104.581 223.027 104.08C222.76 103.579 222.387 103.195 221.907 102.928C221.437 102.651 220.904 102.512 220.307 102.512C219.709 102.512 219.171 102.651 218.691 102.928C218.221 103.195 217.848 103.579 217.571 104.08C217.304 104.581 217.171 105.152 217.171 105.792C217.171 106.432 217.304 107.003 217.571 107.504C217.848 108.005 218.221 108.395 218.691 108.672C219.171 108.939 219.709 109.072 220.307 109.072ZM235.168 109.008V112.032H234.096V110H226.56V112.032H225.488V109.008H225.968C226.533 108.976 226.917 108.56 227.12 107.76C227.322 106.96 227.461 105.84 227.536 104.4L227.648 101.584H233.856V109.008H235.168ZM228.576 104.464C228.522 105.659 228.421 106.645 228.272 107.424C228.122 108.192 227.856 108.72 227.472 109.008H232.72V102.592H228.672L228.576 104.464Z" fill="#8A8A8A"/>
<path d="M8 1H384V-1H8V1ZM391 8V129H393V8H391ZM384 136H8V138H384V136ZM1 129V8H-1V129H1ZM8 136C4.134 136 1 132.866 1 129H-1C-1 133.971 3.02943 138 8 138V136ZM391 129C391 132.866 387.866 136 384 136V138C388.971 138 393 133.971 393 129H391ZM384 1C387.866 1 391 4.13401 391 8H393C393 3.02944 388.971 -1 384 -1V1ZM8 -1C3.02944 -1 -1 3.02943 -1 8H1C1 4.134 4.13401 1 8 1V-1Z" fill="url(#paint0_linear_575_372)"/>
<defs>
<linearGradient id="paint0_linear_575_372" x1="0" y1="0" x2="60.5" y2="93" gradientUnits="userSpaceOnUse">
<stop stop-color="#DA4533"/>
<stop offset="1" stop-color="#DA4533" stop-opacity="0"/>
</linearGradient>
</defs>
</svg>
