<svg width="392" height="137" viewBox="0 0 392 137" fill="none" xmlns="http://www.w3.org/2000/svg">
<path d="M0 8C0 3.58172 3.58172 0 8 0H384C388.418 0 392 3.58172 392 8V129C392 133.418 388.418 137 384 137H8C3.58172 137 0 133.418 0 129V8Z" fill="white" fill-opacity="0.05"/>
<path d="M29.36 49.468C27.512 49.468 26 49.036 24.824 48.172C23.648 47.308 22.784 46.144 22.232 44.68C21.68 43.216 21.404 41.596 21.404 39.82C21.404 37.612 21.752 35.656 22.448 33.952C23.168 32.248 24.152 30.796 25.4 29.596C26.672 28.396 28.148 27.472 29.828 26.824C31.532 26.176 33.368 25.816 35.336 25.744L35.444 27.004C33.764 27.244 32.228 27.772 30.836 28.588C29.444 29.38 28.28 30.424 27.344 31.72C26.408 33.016 25.784 34.528 25.472 36.256L25.76 36.292C26.48 35.572 27.176 35.032 27.848 34.672C28.544 34.288 29.36 34.096 30.296 34.096C32.216 34.096 33.752 34.756 34.904 36.076C36.056 37.396 36.632 39.232 36.632 41.584C36.632 44.128 35.996 46.084 34.724 47.452C33.476 48.796 31.688 49.468 29.36 49.468ZM29.468 48.064C30.548 48.064 31.376 47.608 31.952 46.696C32.528 45.784 32.816 44.212 32.816 41.98C32.816 40.396 32.48 39.076 31.808 38.02C31.16 36.94 30.176 36.4 28.856 36.4C28.232 36.4 27.656 36.532 27.128 36.796C26.6 37.06 26.168 37.492 25.832 38.092C25.496 38.692 25.328 39.496 25.328 40.504C25.328 41.968 25.472 43.276 25.76 44.428C26.072 45.556 26.528 46.444 27.128 47.092C27.752 47.74 28.532 48.064 29.468 48.064ZM53.5562 49H40.3082V47.812C42.0122 47.812 43.2122 47.632 43.9082 47.272C44.6282 46.912 44.9882 46.288 44.9882 45.4V30.568C44.9882 29.944 44.9042 29.5 44.7362 29.236C44.5682 28.948 44.2562 28.804 43.8002 28.804C43.5602 28.804 43.2122 28.828 42.7562 28.876C42.3242 28.924 41.8682 28.984 41.3882 29.056C40.9082 29.128 40.4762 29.224 40.0922 29.344V27.976L47.3642 25.996H48.8402V45.4C48.8402 46.288 49.2122 46.912 49.9562 47.272C50.7002 47.632 51.9002 47.812 53.5562 47.812V49Z" fill="white"/>
<path d="M26.784 84.096C25.6747 84.096 24.672 83.8507 23.776 83.36C22.8907 82.8693 22.192 82.192 21.68 81.328C21.1787 80.4533 20.928 79.4773 20.928 78.4C20.928 77.3227 21.1787 76.352 21.68 75.488C22.192 74.6133 22.896 73.9307 23.792 73.44C24.688 72.9493 25.6907 72.704 26.8 72.704C27.632 72.704 28.4 72.8427 29.104 73.12C29.808 73.3973 30.4053 73.8027 30.896 74.336L30.144 75.088C29.2693 74.2027 28.1653 73.76 26.832 73.76C25.9467 73.76 25.1413 73.9627 24.416 74.368C23.6907 74.7733 23.12 75.328 22.704 76.032C22.2987 76.736 22.096 77.5253 22.096 78.4C22.096 79.2747 22.2987 80.064 22.704 80.768C23.12 81.472 23.6907 82.0267 24.416 82.432C25.1413 82.8373 25.9467 83.04 26.832 83.04C28.176 83.04 29.28 82.592 30.144 81.696L30.896 82.448C30.4053 82.9813 29.8027 83.392 29.088 83.68C28.384 83.9573 27.616 84.096 26.784 84.096ZM36.1661 84.08C35.3555 84.08 34.6248 83.8987 33.9741 83.536C33.3235 83.1627 32.8115 82.6507 32.4381 82C32.0648 81.3493 31.8781 80.6133 31.8781 79.792C31.8781 78.9707 32.0648 78.2347 32.4381 77.584C32.8115 76.9333 33.3235 76.4267 33.9741 76.064C34.6248 75.7013 35.3555 75.52 36.1661 75.52C36.9768 75.52 37.7075 75.7013 38.3581 76.064C39.0088 76.4267 39.5155 76.9333 39.8781 77.584C40.2515 78.2347 40.4381 78.9707 40.4381 79.792C40.4381 80.6133 40.2515 81.3493 39.8781 82C39.5155 82.6507 39.0088 83.1627 38.3581 83.536C37.7075 83.8987 36.9768 84.08 36.1661 84.08ZM36.1661 83.072C36.7635 83.072 37.2968 82.9387 37.7661 82.672C38.2461 82.3947 38.6195 82.0053 38.8861 81.504C39.1528 81.0027 39.2861 80.432 39.2861 79.792C39.2861 79.152 39.1528 78.5813 38.8861 78.08C38.6195 77.5787 38.2461 77.1947 37.7661 76.928C37.2968 76.6507 36.7635 76.512 36.1661 76.512C35.5688 76.512 35.0301 76.6507 34.5501 76.928C34.0808 77.1947 33.7075 77.5787 33.4301 78.08C33.1635 78.5813 33.0301 79.152 33.0301 79.792C33.0301 80.432 33.1635 81.0027 33.4301 81.504C33.7075 82.0053 34.0808 82.3947 34.5501 82.672C35.0301 82.9387 35.5688 83.072 36.1661 83.072ZM48.226 79.648C49.3673 79.9147 49.938 80.6027 49.938 81.712C49.938 82.448 49.666 83.0133 49.122 83.408C48.578 83.8027 47.7673 84 46.69 84H42.866V75.584H46.578C47.538 75.584 48.29 75.7707 48.834 76.144C49.378 76.5173 49.65 77.0507 49.65 77.744C49.65 78.2027 49.522 78.5973 49.266 78.928C49.0207 79.248 48.674 79.488 48.226 79.648ZM43.97 79.328H46.498C47.1487 79.328 47.6447 79.2053 47.986 78.96C48.338 78.7147 48.514 78.3573 48.514 77.888C48.514 77.4187 48.338 77.0667 47.986 76.832C47.6447 76.5973 47.1487 76.48 46.498 76.48H43.97V79.328ZM46.642 83.104C47.3673 83.104 47.9113 82.9867 48.274 82.752C48.6367 82.5173 48.818 82.1493 48.818 81.648C48.818 81.1467 48.6527 80.7787 48.322 80.544C47.9913 80.2987 47.4687 80.176 46.754 80.176H43.97V83.104H46.642ZM56.0724 84.08C55.2617 84.08 54.531 83.8987 53.8804 83.536C53.2297 83.1627 52.7177 82.6507 52.3444 82C51.971 81.3493 51.7844 80.6133 51.7844 79.792C51.7844 78.9707 51.971 78.2347 52.3444 77.584C52.7177 76.9333 53.2297 76.4267 53.8804 76.064C54.531 75.7013 55.2617 75.52 56.0724 75.52C56.883 75.52 57.6137 75.7013 58.2644 76.064C58.915 76.4267 59.4217 76.9333 59.7844 77.584C60.1577 78.2347 60.3444 78.9707 60.3444 79.792C60.3444 80.6133 60.1577 81.3493 59.7844 82C59.4217 82.6507 58.915 83.1627 58.2644 83.536C57.6137 83.8987 56.883 84.08 56.0724 84.08ZM56.0724 83.072C56.6697 83.072 57.203 82.9387 57.6724 82.672C58.1524 82.3947 58.5257 82.0053 58.7924 81.504C59.059 81.0027 59.1924 80.432 59.1924 79.792C59.1924 79.152 59.059 78.5813 58.7924 78.08C58.5257 77.5787 58.1524 77.1947 57.6724 76.928C57.203 76.6507 56.6697 76.512 56.0724 76.512C55.475 76.512 54.9364 76.6507 54.4564 76.928C53.987 77.1947 53.6137 77.5787 53.3364 78.08C53.0697 78.5813 52.9364 79.152 52.9364 79.792C52.9364 80.432 53.0697 81.0027 53.3364 81.504C53.6137 82.0053 53.987 82.3947 54.4564 82.672C54.9364 82.9387 55.475 83.072 56.0724 83.072ZM65.8283 80.256H63.9083V84H62.7723V75.584H63.9083V79.28H65.8443L68.8043 75.584H70.0363L66.7243 79.664L70.2763 84H68.9323L65.8283 80.256ZM78.7368 75.584L74.5288 85.008C74.1874 85.7973 73.7928 86.3573 73.3448 86.688C72.8968 87.0187 72.3581 87.184 71.7288 87.184C71.3234 87.184 70.9448 87.12 70.5928 86.992C70.2408 86.864 69.9367 86.672 69.6807 86.416L70.2088 85.568C70.6354 85.9947 71.1474 86.208 71.7448 86.208C72.1288 86.208 72.4541 86.1013 72.7208 85.888C72.9981 85.6747 73.2541 85.312 73.4888 84.8L73.8568 83.984L70.0968 75.584H71.2808L74.4488 82.736L77.6168 75.584H78.7368ZM88.0586 75.584V84H86.9226V76.592H81.6426V84H80.5066V75.584H88.0586ZM91.2879 75.584H92.4239V79.312H97.7199V75.584H98.8559V84H97.7199V80.288H92.4239V84H91.2879V75.584ZM105.621 78.56C106.677 78.5707 107.482 78.8053 108.037 79.264C108.591 79.7227 108.869 80.384 108.869 81.248C108.869 82.144 108.57 82.832 107.973 83.312C107.375 83.792 106.522 84.0267 105.413 84.016L102.085 84V75.584H103.221V78.528L105.621 78.56ZM110.277 75.584H111.413V84H110.277V75.584ZM105.349 83.152C106.127 83.1627 106.714 83.008 107.109 82.688C107.514 82.3573 107.717 81.8773 107.717 81.248C107.717 80.6293 107.519 80.1707 107.125 79.872C106.73 79.5733 106.138 79.4187 105.349 79.408L103.221 79.376V83.12L105.349 83.152ZM114.647 75.584H115.783V82.272L121.399 75.584H122.407V84H121.271V77.312L115.671 84H114.647V75.584ZM118.471 74.368C117.746 74.368 117.17 74.1867 116.743 73.824C116.317 73.4613 116.098 72.9493 116.087 72.288H116.903C116.914 72.704 117.063 73.04 117.351 73.296C117.639 73.5413 118.013 73.664 118.471 73.664C118.93 73.664 119.303 73.5413 119.591 73.296C119.89 73.04 120.045 72.704 120.055 72.288H120.871C120.861 72.9493 120.637 73.4613 120.199 73.824C119.773 74.1867 119.197 74.368 118.471 74.368ZM133.322 84.08C132.512 84.08 131.781 83.8987 131.13 83.536C130.48 83.1627 129.968 82.6507 129.594 82C129.221 81.3493 129.034 80.6133 129.034 79.792C129.034 78.9707 129.221 78.2347 129.594 77.584C129.968 76.9333 130.48 76.4267 131.13 76.064C131.781 75.7013 132.512 75.52 133.322 75.52C134.133 75.52 134.864 75.7013 135.514 76.064C136.165 76.4267 136.672 76.9333 137.034 77.584C137.408 78.2347 137.594 78.9707 137.594 79.792C137.594 80.6133 137.408 81.3493 137.034 82C136.672 82.6507 136.165 83.1627 135.514 83.536C134.864 83.8987 134.133 84.08 133.322 84.08ZM133.322 83.072C133.92 83.072 134.453 82.9387 134.922 82.672C135.402 82.3947 135.776 82.0053 136.042 81.504C136.309 81.0027 136.442 80.432 136.442 79.792C136.442 79.152 136.309 78.5813 136.042 78.08C135.776 77.5787 135.402 77.1947 134.922 76.928C134.453 76.6507 133.92 76.512 133.322 76.512C132.725 76.512 132.186 76.6507 131.706 76.928C131.237 77.1947 130.864 77.5787 130.586 78.08C130.32 78.5813 130.186 79.152 130.186 79.792C130.186 80.432 130.32 81.0027 130.586 81.504C130.864 82.0053 131.237 82.3947 131.706 82.672C132.186 82.9387 132.725 83.072 133.322 83.072ZM147.574 75.584V84H146.438V76.592H141.158V84H140.022V75.584H147.574ZM154.34 78.56C155.396 78.5707 156.201 78.8053 156.756 79.264C157.31 79.7227 157.588 80.384 157.588 81.248C157.588 82.144 157.289 82.832 156.692 83.312C156.094 83.792 155.241 84.0267 154.132 84.016L150.804 84V75.584H151.94V78.528L154.34 78.56ZM158.996 75.584H160.132V84H158.996V75.584ZM154.068 83.152C154.846 83.1627 155.433 83.008 155.828 82.688C156.233 82.3573 156.436 81.8773 156.436 81.248C156.436 80.6293 156.238 80.1707 155.844 79.872C155.449 79.5733 154.857 79.4187 154.068 79.408L151.94 79.376V83.12L154.068 83.152ZM169.286 76.592H166.102V84H164.966V76.592H161.782V75.584H169.286V76.592ZM23.904 101.52C24.7467 101.52 25.504 101.707 26.176 102.08C26.8587 102.443 27.392 102.949 27.776 103.6C28.1707 104.251 28.368 104.981 28.368 105.792C28.368 106.603 28.1707 107.339 27.776 108C27.392 108.651 26.8587 109.163 26.176 109.536C25.504 109.909 24.7467 110.096 23.904 110.096C23.2 110.096 22.5547 109.989 21.968 109.776C21.3813 109.552 20.8853 109.232 20.48 108.816L21.152 108.144C21.8667 108.816 22.768 109.152 23.856 109.152C24.464 109.152 25.0133 109.024 25.504 108.768C26.0053 108.512 26.4107 108.155 26.72 107.696C27.04 107.237 27.2267 106.725 27.28 106.16H22.784V105.296H27.264C27.1467 104.453 26.7733 103.771 26.144 103.248C25.5147 102.715 24.752 102.448 23.856 102.448C22.768 102.448 21.8667 102.784 21.152 103.456L20.48 102.8C20.8853 102.384 21.3813 102.069 21.968 101.856C22.5547 101.632 23.2 101.52 23.904 101.52ZM33.8126 106.256H31.8926V110H30.7566V101.584H31.8926V105.28H33.8286L36.7886 101.584H38.0206L34.7086 105.664L38.2606 110H36.9166L33.8126 106.256ZM43.2766 110.08C42.4446 110.08 41.698 109.899 41.0366 109.536C40.386 109.173 39.874 108.667 39.5006 108.016C39.1273 107.355 38.9406 106.613 38.9406 105.792C38.9406 104.971 39.1273 104.235 39.5006 103.584C39.874 102.933 40.386 102.427 41.0366 102.064C41.698 101.701 42.4446 101.52 43.2766 101.52C44.002 101.52 44.6473 101.664 45.2126 101.952C45.7886 102.229 46.242 102.64 46.5726 103.184L45.7246 103.76C45.4473 103.344 45.0953 103.035 44.6686 102.832C44.242 102.619 43.778 102.512 43.2766 102.512C42.6686 102.512 42.1193 102.651 41.6286 102.928C41.1486 103.195 40.77 103.579 40.4926 104.08C40.226 104.581 40.0926 105.152 40.0926 105.792C40.0926 106.443 40.226 107.019 40.4926 107.52C40.77 108.011 41.1486 108.395 41.6286 108.672C42.1193 108.939 42.6686 109.072 43.2766 109.072C43.778 109.072 44.242 108.971 44.6686 108.768C45.0953 108.565 45.4473 108.256 45.7246 107.84L46.5726 108.416C46.242 108.96 45.7886 109.376 45.2126 109.664C44.6366 109.941 43.9913 110.08 43.2766 110.08ZM56.3243 101.584V110H55.1883V102.592H49.9083V110H48.7723V101.584H56.3243ZM66.9135 106.144H59.8735C59.9375 107.019 60.2735 107.728 60.8815 108.272C61.4895 108.805 62.2575 109.072 63.1855 109.072C63.7082 109.072 64.1882 108.981 64.6255 108.8C65.0628 108.608 65.4415 108.331 65.7615 107.968L66.4015 108.704C66.0282 109.152 65.5588 109.493 64.9935 109.728C64.4388 109.963 63.8255 110.08 63.1535 110.08C62.2895 110.08 61.5215 109.899 60.8495 109.536C60.1882 109.163 59.6708 108.651 59.2975 108C58.9242 107.349 58.7375 106.613 58.7375 105.792C58.7375 104.971 58.9135 104.235 59.2655 103.584C59.6282 102.933 60.1188 102.427 60.7375 102.064C61.3668 101.701 62.0708 101.52 62.8495 101.52C63.6282 101.52 64.3268 101.701 64.9455 102.064C65.5642 102.427 66.0495 102.933 66.4015 103.584C66.7535 104.224 66.9295 104.96 66.9295 105.792L66.9135 106.144ZM62.8495 102.496C62.0388 102.496 61.3562 102.757 60.8015 103.28C60.2575 103.792 59.9482 104.464 59.8735 105.296H65.8415C65.7668 104.464 65.4522 103.792 64.8975 103.28C64.3535 102.757 63.6708 102.496 62.8495 102.496ZM73.7801 101.52C74.5695 101.52 75.2841 101.701 75.9241 102.064C76.5641 102.416 77.0655 102.917 77.4281 103.568C77.7908 104.219 77.9721 104.96 77.9721 105.792C77.9721 106.635 77.7908 107.381 77.4281 108.032C77.0655 108.683 76.5641 109.189 75.9241 109.552C75.2948 109.904 74.5801 110.08 73.7801 110.08C73.0975 110.08 72.4788 109.941 71.9241 109.664C71.3801 109.376 70.9321 108.96 70.5801 108.416V113.104H69.4441V101.584H70.5321V103.248C70.8735 102.693 71.3215 102.267 71.8761 101.968C72.4415 101.669 73.0761 101.52 73.7801 101.52ZM73.7001 109.072C74.2868 109.072 74.8201 108.939 75.3001 108.672C75.7801 108.395 76.1535 108.005 76.4201 107.504C76.6975 107.003 76.8361 106.432 76.8361 105.792C76.8361 105.152 76.6975 104.587 76.4201 104.096C76.1535 103.595 75.7801 103.205 75.3001 102.928C74.8201 102.651 74.2868 102.512 73.7001 102.512C73.1028 102.512 72.5641 102.651 72.0841 102.928C71.6148 103.205 71.2415 103.595 70.9641 104.096C70.6975 104.587 70.5641 105.152 70.5641 105.792C70.5641 106.432 70.6975 107.003 70.9641 107.504C71.2415 108.005 71.6148 108.395 72.0841 108.672C72.5641 108.939 73.1028 109.072 73.7001 109.072ZM86.0204 102.592H82.8364V110H81.7004V102.592H78.5164V101.584H86.0204V102.592ZM90.7443 110.08C89.9336 110.08 89.2029 109.899 88.5523 109.536C87.9016 109.163 87.3896 108.651 87.0163 108C86.6429 107.349 86.4563 106.613 86.4563 105.792C86.4563 104.971 86.6429 104.235 87.0163 103.584C87.3896 102.933 87.9016 102.427 88.5523 102.064C89.2029 101.701 89.9336 101.52 90.7443 101.52C91.5549 101.52 92.2856 101.701 92.9363 102.064C93.5869 102.427 94.0936 102.933 94.4563 103.584C94.8296 104.235 95.0163 104.971 95.0163 105.792C95.0163 106.613 94.8296 107.349 94.4563 108C94.0936 108.651 93.5869 109.163 92.9363 109.536C92.2856 109.899 91.5549 110.08 90.7443 110.08ZM90.7443 109.072C91.3416 109.072 91.8749 108.939 92.3443 108.672C92.8243 108.395 93.1976 108.005 93.4643 107.504C93.7309 107.003 93.8643 106.432 93.8643 105.792C93.8643 105.152 93.7309 104.581 93.4643 104.08C93.1976 103.579 92.8243 103.195 92.3443 102.928C91.8749 102.651 91.3416 102.512 90.7443 102.512C90.1469 102.512 89.6083 102.651 89.1283 102.928C88.6589 103.195 88.2856 103.579 88.0082 104.08C87.7416 104.581 87.6083 105.152 87.6083 105.792C87.6083 106.432 87.7416 107.003 88.0082 107.504C88.2856 108.005 88.6589 108.395 89.1283 108.672C89.6083 108.939 90.1469 109.072 90.7443 109.072ZM102.804 105.648C103.945 105.915 104.516 106.603 104.516 107.712C104.516 108.448 104.244 109.013 103.7 109.408C103.156 109.803 102.345 110 101.268 110H97.4441V101.584H101.156C102.116 101.584 102.868 101.771 103.412 102.144C103.956 102.517 104.228 103.051 104.228 103.744C104.228 104.203 104.1 104.597 103.844 104.928C103.599 105.248 103.252 105.488 102.804 105.648ZM98.5481 105.328H101.076C101.727 105.328 102.223 105.205 102.564 104.96C102.916 104.715 103.092 104.357 103.092 103.888C103.092 103.419 102.916 103.067 102.564 102.832C102.223 102.597 101.727 102.48 101.076 102.48H98.5481V105.328ZM101.22 109.104C101.945 109.104 102.489 108.987 102.852 108.752C103.215 108.517 103.396 108.149 103.396 107.648C103.396 107.147 103.231 106.779 102.9 106.544C102.569 106.299 102.047 106.176 101.332 106.176H98.5481V109.104H101.22Z" fill="#8A8A8A"/>
<path d="M8 1H384V-1H8V1ZM391 8V129H393V8H391ZM384 136H8V138H384V136ZM1 129V8H-1V129H1ZM8 136C4.134 136 1 132.866 1 129H-1C-1 133.971 3.02943 138 8 138V136ZM391 129C391 132.866 387.866 136 384 136V138C388.971 138 393 133.971 393 129H391ZM384 1C387.866 1 391 4.13401 391 8H393C393 3.02944 388.971 -1 384 -1V1ZM8 -1C3.02944 -1 -1 3.02943 -1 8H1C1 4.134 4.13401 1 8 1V-1Z" fill="url(#paint0_linear_780_1885)"/>
<defs>
<linearGradient id="paint0_linear_780_1885" x1="0" y1="0" x2="60.5" y2="93" gradientUnits="userSpaceOnUse">
<stop stop-color="#DA4533"/>
<stop offset="1" stop-color="#DA4533" stop-opacity="0"/>
</linearGradient>
</defs>
</svg>
