<svg width="392" height="137" viewBox="0 0 392 137" fill="none" xmlns="http://www.w3.org/2000/svg">
<path d="M0 8C0 3.58172 3.58172 0 8 0H384C388.418 0 392 3.58172 392 8V129C392 133.418 388.418 137 384 137H8C3.58172 137 0 133.418 0 129V8Z" fill="white" fill-opacity="0.05"/>
<path d="M35.732 49H22.484V47.812C24.188 47.812 25.388 47.632 26.084 47.272C26.804 46.912 27.164 46.288 27.164 45.4V30.568C27.164 29.944 27.08 29.5 26.912 29.236C26.744 28.948 26.432 28.804 25.976 28.804C25.736 28.804 25.388 28.828 24.932 28.876C24.5 28.924 24.044 28.984 23.564 29.056C23.084 29.128 22.652 29.224 22.268 29.344V27.976L29.54 25.996H31.016V45.4C31.016 46.288 31.388 46.912 32.132 47.272C32.876 47.632 34.076 47.812 35.732 47.812V49ZM53.5562 49H40.3082V47.812C42.0122 47.812 43.2122 47.632 43.9082 47.272C44.6282 46.912 44.9882 46.288 44.9882 45.4V30.568C44.9882 29.944 44.9042 29.5 44.7362 29.236C44.5682 28.948 44.2562 28.804 43.8002 28.804C43.5602 28.804 43.2122 28.828 42.7562 28.876C42.3242 28.924 41.8682 28.984 41.3882 29.056C40.9082 29.128 40.4762 29.224 40.0922 29.344V27.976L47.3642 25.996H48.8402V45.4C48.8402 46.288 49.2122 46.912 49.9562 47.272C50.7002 47.632 51.9002 47.812 53.5562 47.812V49ZM61.6244 49.504C60.1364 49.504 59.0444 49.336 58.3484 49C57.6764 48.64 57.3404 48.112 57.3404 47.416C57.3404 46.96 57.4724 46.552 57.7364 46.192C58.0244 45.808 58.4324 45.616 58.9604 45.616C59.3444 45.616 59.7164 45.724 60.0764 45.94C60.4604 46.132 60.8324 46.36 61.1924 46.624C61.5764 46.888 61.9964 47.128 62.4524 47.344C62.9084 47.536 63.4244 47.632 64.0004 47.632C64.8644 47.632 65.6324 47.476 66.3044 47.164C67.0004 46.828 67.5524 46.3 67.9604 45.58C68.3684 44.836 68.5724 43.852 68.5724 42.628C68.5724 41.404 68.3204 40.42 67.8164 39.676C67.3364 38.908 66.6644 38.332 65.8004 37.948C64.9364 37.54 63.9404 37.264 62.8124 37.12C61.6844 36.976 60.4844 36.892 59.2124 36.868L58.7084 36.184L61.0484 26.32H71.3444L70.7684 29.56H61.9484L61.0484 33.448C62.1524 33.52 63.2324 33.652 64.2884 33.844C65.3444 34.012 66.3284 34.264 67.2404 34.6C68.1524 34.936 68.9564 35.392 69.6524 35.968C70.3484 36.544 70.8884 37.252 71.2724 38.092C71.6804 38.932 71.8844 39.94 71.8844 41.116C71.8844 42.556 71.6204 43.804 71.0924 44.86C70.5644 45.916 69.8324 46.792 68.8964 47.488C67.9844 48.16 66.9044 48.664 65.6564 49C64.4324 49.336 63.0884 49.504 61.6244 49.504ZM82.3647 49.396C80.9247 49.396 79.7007 49.084 78.6927 48.46C77.6847 47.836 76.8687 46.984 76.2447 45.904C75.6207 44.8 75.1647 43.528 74.8767 42.088C74.5887 40.624 74.4447 39.088 74.4447 37.48C74.4447 35.152 74.7447 33.124 75.3447 31.396C75.9687 29.644 76.8687 28.288 78.0447 27.328C79.2447 26.368 80.7087 25.888 82.4367 25.888C84.0207 25.888 85.4007 26.344 86.5767 27.256C87.7527 28.168 88.6647 29.488 89.3127 31.216C89.9847 32.944 90.3207 35.068 90.3207 37.588C90.3207 39.172 90.1647 40.672 89.8527 42.088C89.5647 43.504 89.1087 44.764 88.4847 45.868C87.8607 46.948 87.0447 47.812 86.0367 48.46C85.0287 49.084 83.8047 49.396 82.3647 49.396ZM82.3647 47.992C83.5887 47.992 84.5367 47.152 85.2087 45.472C85.8807 43.768 86.2167 41.212 86.2167 37.804C86.2167 34.204 85.8927 31.54 85.2447 29.812C84.5967 28.084 83.6247 27.22 82.3287 27.22C81.1047 27.22 80.1567 28.084 79.4847 29.812C78.8127 31.516 78.4767 34.132 78.4767 37.66C78.4767 41.092 78.8127 43.672 79.4847 45.4C80.1567 47.128 81.1167 47.992 82.3647 47.992Z" fill="white"/>
<path d="M26.752 78.144C27.488 78.3253 28.064 78.656 28.48 79.136C28.9067 79.616 29.12 80.192 29.12 80.864C29.12 81.5147 28.9173 82.0853 28.512 82.576C28.1067 83.0667 27.568 83.4453 26.896 83.712C26.224 83.968 25.4933 84.096 24.704 84.096C23.9573 84.096 23.2213 83.9787 22.496 83.744C21.7813 83.4987 21.136 83.136 20.56 82.656L20.992 81.808C21.4827 82.224 22.0427 82.544 22.672 82.768C23.3013 82.9813 23.936 83.088 24.576 83.088C25.184 83.088 25.744 82.992 26.256 82.8C26.768 82.608 27.1733 82.336 27.472 81.984C27.7813 81.6213 27.936 81.1947 27.936 80.704C27.936 80.0533 27.68 79.552 27.168 79.2C26.656 78.848 25.936 78.672 25.008 78.672H22.608V77.712H24.944C25.7333 77.712 26.3467 77.5467 26.784 77.216C27.232 76.8747 27.456 76.4053 27.456 75.808C27.456 75.1467 27.1733 74.6293 26.608 74.256C26.0427 73.872 25.3333 73.68 24.48 73.68C23.9467 73.68 23.408 73.76 22.864 73.92C22.32 74.0693 21.8027 74.2987 21.312 74.608L20.912 73.632C22.0213 72.9707 23.2213 72.64 24.512 72.64C25.2693 72.64 25.9627 72.7627 26.592 73.008C27.2213 73.2533 27.7173 73.6053 28.08 74.064C28.4533 74.5227 28.64 75.0613 28.64 75.68C28.64 76.2773 28.4747 76.7947 28.144 77.232C27.8133 77.6587 27.3493 77.9627 26.752 78.144ZM34.6839 75.52C35.7825 75.52 36.6252 75.7973 37.2119 76.352C37.7985 76.896 38.0919 77.7067 38.0919 78.784V84H37.0039V82.688C36.7479 83.1253 36.3692 83.4667 35.8679 83.712C35.3772 83.9573 34.7905 84.08 34.1079 84.08C33.1692 84.08 32.4225 83.856 31.8679 83.408C31.3132 82.96 31.0359 82.368 31.0359 81.632C31.0359 80.9173 31.2919 80.3413 31.8039 79.904C32.3265 79.4667 33.1532 79.248 34.2839 79.248H36.9559V78.736C36.9559 78.0107 36.7532 77.4613 36.3479 77.088C35.9425 76.704 35.3505 76.512 34.5719 76.512C34.0385 76.512 33.5265 76.6027 33.0359 76.784C32.5452 76.9547 32.1239 77.1947 31.7719 77.504L31.2599 76.656C31.6865 76.2933 32.1985 76.016 32.7959 75.824C33.3932 75.6213 34.0225 75.52 34.6839 75.52ZM34.2839 83.184C34.9239 83.184 35.4732 83.04 35.9319 82.752C36.3905 82.4533 36.7319 82.0267 36.9559 81.472V80.096H34.3159C32.8759 80.096 32.1559 80.5973 32.1559 81.6C32.1559 82.0907 32.3425 82.48 32.7159 82.768C33.0892 83.0453 33.6119 83.184 34.2839 83.184ZM46.476 79.648C47.6173 79.9147 48.188 80.6027 48.188 81.712C48.188 82.448 47.916 83.0133 47.372 83.408C46.828 83.8027 46.0173 84 44.94 84H41.116V75.584H44.828C45.788 75.584 46.54 75.7707 47.084 76.144C47.628 76.5173 47.9 77.0507 47.9 77.744C47.9 78.2027 47.772 78.5973 47.516 78.928C47.2707 79.248 46.924 79.488 46.476 79.648ZM42.22 79.328H44.748C45.3987 79.328 45.8947 79.2053 46.236 78.96C46.588 78.7147 46.764 78.3573 46.764 77.888C46.764 77.4187 46.588 77.0667 46.236 76.832C45.8947 76.5973 45.3987 76.48 44.748 76.48H42.22V79.328ZM44.892 83.104C45.6173 83.104 46.1613 82.9867 46.524 82.752C46.8867 82.5173 47.068 82.1493 47.068 81.648C47.068 81.1467 46.9027 80.7787 46.572 80.544C46.2413 80.2987 45.7187 80.176 45.004 80.176H42.22V83.104H44.892ZM58.2104 80.144H51.1704C51.2344 81.0187 51.5704 81.728 52.1784 82.272C52.7864 82.8053 53.5544 83.072 54.4824 83.072C55.005 83.072 55.485 82.9813 55.9224 82.8C56.3597 82.608 56.7384 82.3307 57.0584 81.968L57.6984 82.704C57.325 83.152 56.8557 83.4933 56.2904 83.728C55.7357 83.9627 55.1224 84.08 54.4504 84.08C53.5864 84.08 52.8184 83.8987 52.1464 83.536C51.485 83.1627 50.9677 82.6507 50.5944 82C50.221 81.3493 50.0344 80.6133 50.0344 79.792C50.0344 78.9707 50.2104 78.2347 50.5624 77.584C50.925 76.9333 51.4157 76.4267 52.0344 76.064C52.6637 75.7013 53.3677 75.52 54.1464 75.52C54.925 75.52 55.6237 75.7013 56.2424 76.064C56.861 76.4267 57.3464 76.9333 57.6984 77.584C58.0504 78.224 58.2264 78.96 58.2264 79.792L58.2104 80.144ZM54.1464 76.496C53.3357 76.496 52.653 76.7573 52.0984 77.28C51.5544 77.792 51.245 78.464 51.1704 79.296H57.1384C57.0637 78.464 56.749 77.792 56.1944 77.28C55.6504 76.7573 54.9677 76.496 54.1464 76.496ZM65.077 75.52C65.8663 75.52 66.581 75.7013 67.221 76.064C67.861 76.416 68.3623 76.9173 68.725 77.568C69.0877 78.2187 69.269 78.96 69.269 79.792C69.269 80.6347 69.0877 81.3813 68.725 82.032C68.3623 82.6827 67.861 83.1893 67.221 83.552C66.5917 83.904 65.877 84.08 65.077 84.08C64.3943 84.08 63.7757 83.9413 63.221 83.664C62.677 83.376 62.229 82.96 61.877 82.416V87.104H60.741V75.584H61.829V77.248C62.1703 76.6933 62.6183 76.2667 63.173 75.968C63.7383 75.6693 64.373 75.52 65.077 75.52ZM64.997 83.072C65.5837 83.072 66.117 82.9387 66.597 82.672C67.077 82.3947 67.4503 82.0053 67.717 81.504C67.9943 81.0027 68.133 80.432 68.133 79.792C68.133 79.152 67.9943 78.5867 67.717 78.096C67.4503 77.5947 67.077 77.2053 66.597 76.928C66.117 76.6507 65.5837 76.512 64.997 76.512C64.3997 76.512 63.861 76.6507 63.381 76.928C62.9117 77.2053 62.5383 77.5947 62.261 78.096C61.9943 78.5867 61.861 79.152 61.861 79.792C61.861 80.432 61.9943 81.0027 62.261 81.504C62.5383 82.0053 62.9117 82.3947 63.381 82.672C63.861 82.9387 64.3997 83.072 64.997 83.072ZM83.3258 75.584V84H71.7098V75.584H72.8458V83.008H76.9738V75.584H78.1098V83.008H82.1898V75.584H83.3258ZM93.9291 80.144H86.8891C86.9531 81.0187 87.2891 81.728 87.8971 82.272C88.5051 82.8053 89.2731 83.072 90.2011 83.072C90.7238 83.072 91.2038 82.9813 91.6411 82.8C92.0785 82.608 92.4571 82.3307 92.7771 81.968L93.4171 82.704C93.0438 83.152 92.5745 83.4933 92.0091 83.728C91.4545 83.9627 90.8411 84.08 90.1691 84.08C89.3051 84.08 88.5371 83.8987 87.8651 83.536C87.2038 83.1627 86.6865 82.6507 86.3131 82C85.9398 81.3493 85.7531 80.6133 85.7531 79.792C85.7531 78.9707 85.9291 78.2347 86.2811 77.584C86.6438 76.9333 87.1345 76.4267 87.7531 76.064C88.3825 75.7013 89.0865 75.52 89.8651 75.52C90.6438 75.52 91.3425 75.7013 91.9611 76.064C92.5798 76.4267 93.0651 76.9333 93.4171 77.584C93.7691 78.224 93.9451 78.96 93.9451 79.792L93.9291 80.144ZM89.8651 76.496C89.0545 76.496 88.3718 76.7573 87.8171 77.28C87.2731 77.792 86.9638 78.464 86.8891 79.296H92.8571C92.7825 78.464 92.4678 77.792 91.9131 77.28C91.3691 76.7573 90.6865 76.496 89.8651 76.496ZM88.4411 73.904C88.2491 73.904 88.0838 73.84 87.9451 73.712C87.8171 73.584 87.7531 73.4187 87.7531 73.216C87.7531 73.024 87.8171 72.864 87.9451 72.736C88.0838 72.5973 88.2491 72.528 88.4411 72.528C88.6225 72.528 88.7825 72.5973 88.9211 72.736C89.0598 72.864 89.1291 73.024 89.1291 73.216C89.1291 73.408 89.0598 73.5733 88.9211 73.712C88.7931 73.84 88.6331 73.904 88.4411 73.904ZM91.2891 73.904C91.0971 73.904 90.9318 73.84 90.7931 73.712C90.6651 73.5733 90.6011 73.408 90.6011 73.216C90.6011 73.024 90.6705 72.864 90.8091 72.736C90.9478 72.5973 91.1078 72.528 91.2891 72.528C91.4811 72.528 91.6411 72.5973 91.7691 72.736C91.9078 72.864 91.9771 73.024 91.9771 73.216C91.9771 73.4187 91.9078 73.584 91.7691 73.712C91.6411 73.84 91.4811 73.904 91.2891 73.904ZM96.4598 75.584H97.5958V79.312H102.892V75.584H104.028V84H102.892V80.288H97.5958V84H96.4598V75.584ZM107.257 75.584H108.393V79.312H113.689V75.584H114.825V84H113.689V80.288H108.393V84H107.257V75.584ZM121.59 78.56C122.646 78.5707 123.451 78.8053 124.006 79.264C124.56 79.7227 124.838 80.384 124.838 81.248C124.838 82.144 124.539 82.832 123.942 83.312C123.344 83.792 122.491 84.0267 121.382 84.016L118.054 84V75.584H119.19V78.528L121.59 78.56ZM126.246 75.584H127.382V84H126.246V75.584ZM121.318 83.152C122.096 83.1627 122.683 83.008 123.078 82.688C123.483 82.3573 123.686 81.8773 123.686 81.248C123.686 80.6293 123.488 80.1707 123.094 79.872C122.699 79.5733 122.107 79.4187 121.318 79.408L119.19 79.376V83.12L121.318 83.152ZM135.88 84L133.208 80.48L130.52 84H129.24L132.568 79.68L129.4 75.584H130.68L133.208 78.88L135.736 75.584H136.984L133.816 79.68L137.176 84H135.88ZM151.433 83.008V86.032H150.361V84H142.825V86.032H141.753V83.008H142.233C142.799 82.976 143.183 82.56 143.385 81.76C143.588 80.96 143.727 79.84 143.801 78.4L143.913 75.584H150.121V83.008H151.433ZM144.841 78.464C144.788 79.6587 144.687 80.6453 144.537 81.424C144.388 82.192 144.121 82.72 143.737 83.008H148.985V76.592H144.937L144.841 78.464ZM161.007 80.144H153.967C154.031 81.0187 154.367 81.728 154.975 82.272C155.583 82.8053 156.351 83.072 157.279 83.072C157.802 83.072 158.282 82.9813 158.719 82.8C159.157 82.608 159.535 82.3307 159.855 81.968L160.495 82.704C160.122 83.152 159.653 83.4933 159.087 83.728C158.533 83.9627 157.919 84.08 157.247 84.08C156.383 84.08 155.615 83.8987 154.943 83.536C154.282 83.1627 153.765 82.6507 153.391 82C153.018 81.3493 152.831 80.6133 152.831 79.792C152.831 78.9707 153.007 78.2347 153.359 77.584C153.722 76.9333 154.213 76.4267 154.831 76.064C155.461 75.7013 156.165 75.52 156.943 75.52C157.722 75.52 158.421 75.7013 159.039 76.064C159.658 76.4267 160.143 76.9333 160.495 77.584C160.847 78.224 161.023 78.96 161.023 79.792L161.007 80.144ZM156.943 76.496C156.133 76.496 155.45 76.7573 154.895 77.28C154.351 77.792 154.042 78.464 153.967 79.296H159.935C159.861 78.464 159.546 77.792 158.991 77.28C158.447 76.7573 157.765 76.496 156.943 76.496ZM170.246 75.584V84H169.11V76.592H165.078L164.966 78.672C164.881 80.4213 164.678 81.7653 164.358 82.704C164.038 83.6427 163.467 84.112 162.646 84.112C162.422 84.112 162.15 84.0693 161.83 83.984L161.91 83.008C162.102 83.0507 162.235 83.072 162.31 83.072C162.747 83.072 163.078 82.8693 163.302 82.464C163.526 82.0587 163.675 81.5573 163.75 80.96C163.825 80.3627 163.889 79.5733 163.942 78.592L164.086 75.584H170.246ZM29.168 101.584V110H28.032V102.592H22.752V110H21.616V101.584H29.168ZM35.8693 110.08C35.0586 110.08 34.3279 109.899 33.6773 109.536C33.0266 109.163 32.5146 108.651 32.1413 108C31.7679 107.349 31.5813 106.613 31.5813 105.792C31.5813 104.971 31.7679 104.235 32.1413 103.584C32.5146 102.933 33.0266 102.427 33.6773 102.064C34.3279 101.701 35.0586 101.52 35.8693 101.52C36.6799 101.52 37.4106 101.701 38.0613 102.064C38.7119 102.427 39.2186 102.933 39.5813 103.584C39.9546 104.235 40.1413 104.971 40.1413 105.792C40.1413 106.613 39.9546 107.349 39.5813 108C39.2186 108.651 38.7119 109.163 38.0613 109.536C37.4106 109.899 36.6799 110.08 35.8693 110.08ZM35.8693 109.072C36.4666 109.072 36.9999 108.939 37.4693 108.672C37.9493 108.395 38.3226 108.005 38.5893 107.504C38.8559 107.003 38.9893 106.432 38.9893 105.792C38.9893 105.152 38.8559 104.581 38.5893 104.08C38.3226 103.579 37.9493 103.195 37.4693 102.928C36.9999 102.651 36.4666 102.512 35.8693 102.512C35.2719 102.512 34.7333 102.651 34.2533 102.928C33.7839 103.195 33.4106 103.579 33.1332 104.08C32.8666 104.581 32.7333 105.152 32.7333 105.792C32.7333 106.432 32.8666 107.003 33.1332 107.504C33.4106 108.005 33.7839 108.395 34.2533 108.672C34.7333 108.939 35.2719 109.072 35.8693 109.072ZM51.0926 101.52C51.882 101.52 52.5966 101.701 53.2366 102.064C53.8766 102.416 54.378 102.917 54.7406 103.568C55.1033 104.219 55.2846 104.96 55.2846 105.792C55.2846 106.635 55.1033 107.381 54.7406 108.032C54.378 108.683 53.8766 109.189 53.2366 109.552C52.6073 109.904 51.8926 110.08 51.0926 110.08C50.41 110.08 49.7913 109.941 49.2366 109.664C48.6926 109.376 48.2446 108.96 47.8926 108.416V113.104H46.7566V101.584H47.8446V103.248C48.186 102.693 48.634 102.267 49.1886 101.968C49.754 101.669 50.3886 101.52 51.0926 101.52ZM51.0126 109.072C51.5993 109.072 52.1326 108.939 52.6126 108.672C53.0926 108.395 53.466 108.005 53.7326 107.504C54.01 107.003 54.1486 106.432 54.1486 105.792C54.1486 105.152 54.01 104.587 53.7326 104.096C53.466 103.595 53.0926 103.205 52.6126 102.928C52.1326 102.651 51.5993 102.512 51.0126 102.512C50.4153 102.512 49.8766 102.651 49.3966 102.928C48.9273 103.205 48.554 103.595 48.2766 104.096C48.01 104.587 47.8766 105.152 47.8766 105.792C47.8766 106.432 48.01 107.003 48.2766 107.504C48.554 108.005 48.9273 108.395 49.3966 108.672C49.8766 108.939 50.4153 109.072 51.0126 109.072ZM65.0854 106.144H58.0454C58.1094 107.019 58.4454 107.728 59.0534 108.272C59.6614 108.805 60.4294 109.072 61.3574 109.072C61.88 109.072 62.36 108.981 62.7974 108.8C63.2347 108.608 63.6134 108.331 63.9334 107.968L64.5734 108.704C64.2 109.152 63.7307 109.493 63.1654 109.728C62.6107 109.963 61.9974 110.08 61.3254 110.08C60.4614 110.08 59.6934 109.899 59.0214 109.536C58.36 109.163 57.8427 108.651 57.4694 108C57.096 107.349 56.9094 106.613 56.9094 105.792C56.9094 104.971 57.0854 104.235 57.4374 103.584C57.8 102.933 58.2907 102.427 58.9094 102.064C59.5387 101.701 60.2427 101.52 61.0214 101.52C61.8 101.52 62.4987 101.701 63.1174 102.064C63.736 102.427 64.2214 102.933 64.5734 103.584C64.9254 104.224 65.1014 104.96 65.1014 105.792L65.0854 106.144ZM61.0214 102.496C60.2107 102.496 59.528 102.757 58.9734 103.28C58.4294 103.792 58.12 104.464 58.0454 105.296H64.0134C63.9387 104.464 63.624 103.792 63.0694 103.28C62.5254 102.757 61.8427 102.496 61.0214 102.496ZM73.568 102.592H68.752V110H67.616V101.584H73.568V102.592ZM75.2098 101.584H76.3458V108.272L81.9618 101.584H82.9698V110H81.8338V103.312L76.2338 110H75.2098V101.584ZM89.7454 110.08C88.9134 110.08 88.1667 109.899 87.5054 109.536C86.8547 109.173 86.3427 108.667 85.9694 108.016C85.596 107.355 85.4094 106.613 85.4094 105.792C85.4094 104.971 85.596 104.235 85.9694 103.584C86.3427 102.933 86.8547 102.427 87.5054 102.064C88.1667 101.701 88.9134 101.52 89.7454 101.52C90.4707 101.52 91.116 101.664 91.6814 101.952C92.2574 102.229 92.7107 102.64 93.0414 103.184L92.1934 103.76C91.916 103.344 91.564 103.035 91.1374 102.832C90.7107 102.619 90.2467 102.512 89.7454 102.512C89.1374 102.512 88.588 102.651 88.0974 102.928C87.6174 103.195 87.2387 103.579 86.9614 104.08C86.6947 104.581 86.5614 105.152 86.5614 105.792C86.5614 106.443 86.6947 107.019 86.9614 107.52C87.2387 108.011 87.6174 108.395 88.0974 108.672C88.588 108.939 89.1374 109.072 89.7454 109.072C90.2467 109.072 90.7107 108.971 91.1374 108.768C91.564 108.565 91.916 108.256 92.1934 107.84L93.0414 108.416C92.7107 108.96 92.2574 109.376 91.6814 109.664C91.1054 109.941 90.46 110.08 89.7454 110.08ZM101.005 102.592H97.8208V110H96.6848V102.592H93.5008V101.584H101.005V102.592ZM106.983 101.52C107.773 101.52 108.487 101.701 109.127 102.064C109.767 102.416 110.269 102.917 110.631 103.568C110.994 104.219 111.175 104.96 111.175 105.792C111.175 106.635 110.994 107.381 110.631 108.032C110.269 108.683 109.767 109.189 109.127 109.552C108.498 109.904 107.783 110.08 106.983 110.08C106.301 110.08 105.682 109.941 105.127 109.664C104.583 109.376 104.135 108.96 103.783 108.416V113.104H102.647V101.584H103.735V103.248C104.077 102.693 104.525 102.267 105.079 101.968C105.645 101.669 106.279 101.52 106.983 101.52ZM106.903 109.072C107.49 109.072 108.023 108.939 108.503 108.672C108.983 108.395 109.357 108.005 109.623 107.504C109.901 107.003 110.039 106.432 110.039 105.792C110.039 105.152 109.901 104.587 109.623 104.096C109.357 103.595 108.983 103.205 108.503 102.928C108.023 102.651 107.49 102.512 106.903 102.512C106.306 102.512 105.767 102.651 105.287 102.928C104.818 103.205 104.445 103.595 104.167 104.096C103.901 104.587 103.767 105.152 103.767 105.792C103.767 106.432 103.901 107.003 104.167 107.504C104.445 108.005 104.818 108.395 105.287 108.672C105.767 108.939 106.306 109.072 106.903 109.072ZM116.465 101.52C117.564 101.52 118.406 101.797 118.993 102.352C119.58 102.896 119.873 103.707 119.873 104.784V110H118.785V108.688C118.529 109.125 118.15 109.467 117.649 109.712C117.158 109.957 116.572 110.08 115.889 110.08C114.95 110.08 114.204 109.856 113.649 109.408C113.094 108.96 112.817 108.368 112.817 107.632C112.817 106.917 113.073 106.341 113.585 105.904C114.108 105.467 114.934 105.248 116.065 105.248H118.737V104.736C118.737 104.011 118.534 103.461 118.129 103.088C117.724 102.704 117.132 102.512 116.353 102.512C115.82 102.512 115.308 102.603 114.817 102.784C114.326 102.955 113.905 103.195 113.553 103.504L113.041 102.656C113.468 102.293 113.98 102.016 114.577 101.824C115.174 101.621 115.804 101.52 116.465 101.52ZM116.065 109.184C116.705 109.184 117.254 109.04 117.713 108.752C118.172 108.453 118.513 108.027 118.737 107.472V106.096H116.097C114.657 106.096 113.937 106.597 113.937 107.6C113.937 108.091 114.124 108.48 114.497 108.768C114.87 109.045 115.393 109.184 116.065 109.184ZM131.665 109.008V112.112H130.593V110H122.897V101.584H124.033V109.008H129.169V101.584H130.305V109.008H131.665ZM133.835 101.584H134.971V108.272L140.587 101.584H141.595V110H140.459V103.312L134.859 110H133.835V101.584ZM144.85 101.584H145.986V108.272L151.602 101.584H152.61V110H151.474V103.312L145.874 110H144.85V101.584ZM165.974 102.592H162.79V110H161.654V102.592H158.47V101.584H165.974V102.592ZM170.697 110.08C169.887 110.08 169.156 109.899 168.505 109.536C167.855 109.163 167.343 108.651 166.969 108C166.596 107.349 166.409 106.613 166.409 105.792C166.409 104.971 166.596 104.235 166.969 103.584C167.343 102.933 167.855 102.427 168.505 102.064C169.156 101.701 169.887 101.52 170.697 101.52C171.508 101.52 172.239 101.701 172.889 102.064C173.54 102.427 174.047 102.933 174.409 103.584C174.783 104.235 174.969 104.971 174.969 105.792C174.969 106.613 174.783 107.349 174.409 108C174.047 108.651 173.54 109.163 172.889 109.536C172.239 109.899 171.508 110.08 170.697 110.08ZM170.697 109.072C171.295 109.072 171.828 108.939 172.297 108.672C172.777 108.395 173.151 108.005 173.417 107.504C173.684 107.003 173.817 106.432 173.817 105.792C173.817 105.152 173.684 104.581 173.417 104.08C173.151 103.579 172.777 103.195 172.297 102.928C171.828 102.651 171.295 102.512 170.697 102.512C170.1 102.512 169.561 102.651 169.081 102.928C168.612 103.195 168.239 103.579 167.961 104.08C167.695 104.581 167.561 105.152 167.561 105.792C167.561 106.432 167.695 107.003 167.961 107.504C168.239 108.005 168.612 108.395 169.081 108.672C169.561 108.939 170.1 109.072 170.697 109.072ZM182.757 105.648C183.899 105.915 184.469 106.603 184.469 107.712C184.469 108.448 184.197 109.013 183.653 109.408C183.109 109.803 182.299 110 181.221 110H177.397V101.584H181.109C182.069 101.584 182.821 101.771 183.365 102.144C183.909 102.517 184.181 103.051 184.181 103.744C184.181 104.203 184.053 104.597 183.797 104.928C183.552 105.248 183.205 105.488 182.757 105.648ZM178.501 105.328H181.029C181.68 105.328 182.176 105.205 182.517 104.96C182.869 104.715 183.045 104.357 183.045 103.888C183.045 103.419 182.869 103.067 182.517 102.832C182.176 102.597 181.68 102.48 181.029 102.48H178.501V105.328ZM181.173 109.104C181.899 109.104 182.443 108.987 182.805 108.752C183.168 108.517 183.349 108.149 183.349 107.648C183.349 107.147 183.184 106.779 182.853 106.544C182.523 106.299 182 106.176 181.285 106.176H178.501V109.104H181.173ZM190.028 101.52C191.126 101.52 191.969 101.797 192.556 102.352C193.142 102.896 193.436 103.707 193.436 104.784V110H192.348V108.688C192.092 109.125 191.713 109.467 191.212 109.712C190.721 109.957 190.134 110.08 189.452 110.08C188.513 110.08 187.766 109.856 187.212 109.408C186.657 108.96 186.38 108.368 186.38 107.632C186.38 106.917 186.636 106.341 187.148 105.904C187.67 105.467 188.497 105.248 189.628 105.248H192.3V104.736C192.3 104.011 192.097 103.461 191.692 103.088C191.286 102.704 190.694 102.512 189.916 102.512C189.382 102.512 188.87 102.603 188.38 102.784C187.889 102.955 187.468 103.195 187.116 103.504L186.604 102.656C187.03 102.293 187.542 102.016 188.14 101.824C188.737 101.621 189.366 101.52 190.028 101.52ZM189.628 109.184C190.268 109.184 190.817 109.04 191.276 108.752C191.734 108.453 192.076 108.027 192.3 107.472V106.096H189.66C188.22 106.096 187.5 106.597 187.5 107.6C187.5 108.091 187.686 108.48 188.06 108.768C188.433 109.045 188.956 109.184 189.628 109.184ZM200.796 101.52C201.585 101.52 202.3 101.701 202.94 102.064C203.58 102.416 204.081 102.917 204.444 103.568C204.806 104.219 204.988 104.96 204.988 105.792C204.988 106.635 204.806 107.381 204.444 108.032C204.081 108.683 203.58 109.189 202.94 109.552C202.31 109.904 201.596 110.08 200.796 110.08C200.113 110.08 199.494 109.941 198.94 109.664C198.396 109.376 197.948 108.96 197.596 108.416V113.104H196.46V101.584H197.548V103.248C197.889 102.693 198.337 102.267 198.892 101.968C199.457 101.669 200.092 101.52 200.796 101.52ZM200.716 109.072C201.302 109.072 201.836 108.939 202.316 108.672C202.796 108.395 203.169 108.005 203.436 107.504C203.713 107.003 203.852 106.432 203.852 105.792C203.852 105.152 203.713 104.587 203.436 104.096C203.169 103.595 202.796 103.205 202.316 102.928C201.836 102.651 201.302 102.512 200.716 102.512C200.118 102.512 199.58 102.651 199.1 102.928C198.63 103.205 198.257 103.595 197.98 104.096C197.713 104.587 197.58 105.152 197.58 105.792C197.58 106.432 197.713 107.003 197.98 107.504C198.257 108.005 198.63 108.395 199.1 108.672C199.58 108.939 200.118 109.072 200.716 109.072ZM207.429 101.584H208.565V105.312H213.861V101.584H214.997V110H213.861V106.288H208.565V110H207.429V101.584ZM221.761 104.56C222.817 104.571 223.623 104.805 224.177 105.264C224.732 105.723 225.009 106.384 225.009 107.248C225.009 108.144 224.711 108.832 224.113 109.312C223.516 109.792 222.663 110.027 221.553 110.016L218.225 110V101.584H219.361V104.528L221.761 104.56ZM226.417 101.584H227.553V110H226.417V101.584ZM221.489 109.152C222.268 109.163 222.855 109.008 223.249 108.688C223.655 108.357 223.857 107.877 223.857 107.248C223.857 106.629 223.66 106.171 223.265 105.872C222.871 105.573 222.279 105.419 221.489 105.408L219.361 105.376V109.12L221.489 109.152ZM236.052 110L233.38 106.48L230.692 110H229.412L232.74 105.68L229.572 101.584H230.852L233.38 104.88L235.908 101.584H237.156L233.988 105.68L237.348 110H236.052ZM247.493 105.616C248.091 105.755 248.549 105.995 248.869 106.336C249.2 106.677 249.365 107.093 249.365 107.584C249.365 108.075 249.195 108.512 248.853 108.896C248.523 109.28 248.069 109.579 247.493 109.792C246.917 109.995 246.283 110.096 245.589 110.096C244.981 110.096 244.384 110.011 243.797 109.84C243.211 109.659 242.699 109.397 242.261 109.056L242.645 108.208C243.029 108.496 243.477 108.72 243.989 108.88C244.501 109.04 245.019 109.12 245.541 109.12C246.32 109.12 246.955 108.976 247.445 108.688C247.947 108.389 248.197 107.989 248.197 107.488C248.197 107.04 247.995 106.693 247.589 106.448C247.184 106.192 246.629 106.064 245.925 106.064H244.485V105.232H245.861C246.491 105.232 246.997 105.115 247.381 104.88C247.765 104.635 247.957 104.309 247.957 103.904C247.957 103.456 247.739 103.104 247.301 102.848C246.875 102.592 246.315 102.464 245.621 102.464C244.715 102.464 243.819 102.693 242.933 103.152L242.613 102.272C243.616 101.749 244.656 101.488 245.733 101.488C246.373 101.488 246.949 101.584 247.461 101.776C247.984 101.957 248.389 102.219 248.677 102.56C248.976 102.901 249.125 103.296 249.125 103.744C249.125 104.171 248.976 104.549 248.677 104.88C248.389 105.211 247.995 105.456 247.493 105.616ZM251.944 101.584H253.08V105.312H258.376V101.584H259.512V110H258.376V106.288H253.08V110H251.944V101.584ZM265.637 101.52C266.736 101.52 267.578 101.797 268.165 102.352C268.752 102.896 269.045 103.707 269.045 104.784V110H267.957V108.688C267.701 109.125 267.322 109.467 266.821 109.712C266.33 109.957 265.744 110.08 265.061 110.08C264.122 110.08 263.376 109.856 262.821 109.408C262.266 108.96 261.989 108.368 261.989 107.632C261.989 106.917 262.245 106.341 262.757 105.904C263.28 105.467 264.106 105.248 265.237 105.248H267.909V104.736C267.909 104.011 267.706 103.461 267.301 103.088C266.896 102.704 266.304 102.512 265.525 102.512C264.992 102.512 264.48 102.603 263.989 102.784C263.498 102.955 263.077 103.195 262.725 103.504L262.213 102.656C262.64 102.293 263.152 102.016 263.749 101.824C264.346 101.621 264.976 101.52 265.637 101.52ZM265.237 109.184C265.877 109.184 266.426 109.04 266.885 108.752C267.344 108.453 267.685 108.027 267.909 107.472V106.096H265.269C263.829 106.096 263.109 106.597 263.109 107.6C263.109 108.091 263.296 108.48 263.669 108.768C264.042 109.045 264.565 109.184 265.237 109.184ZM275.125 106.256H273.205V110H272.069V101.584H273.205V105.28H275.141L278.101 101.584H279.333L276.021 105.664L279.573 110H278.229L275.125 106.256ZM284.541 110.08C283.73 110.08 283 109.899 282.349 109.536C281.698 109.163 281.186 108.651 280.813 108C280.44 107.349 280.253 106.613 280.253 105.792C280.253 104.971 280.44 104.235 280.813 103.584C281.186 102.933 281.698 102.427 282.349 102.064C283 101.701 283.73 101.52 284.541 101.52C285.352 101.52 286.082 101.701 286.733 102.064C287.384 102.427 287.89 102.933 288.253 103.584C288.626 104.235 288.813 104.971 288.813 105.792C288.813 106.613 288.626 107.349 288.253 108C287.89 108.651 287.384 109.163 286.733 109.536C286.082 109.899 285.352 110.08 284.541 110.08ZM284.541 109.072C285.138 109.072 285.672 108.939 286.141 108.672C286.621 108.395 286.994 108.005 287.261 107.504C287.528 107.003 287.661 106.432 287.661 105.792C287.661 105.152 287.528 104.581 287.261 104.08C286.994 103.579 286.621 103.195 286.141 102.928C285.672 102.651 285.138 102.512 284.541 102.512C283.944 102.512 283.405 102.651 282.925 102.928C282.456 103.195 282.082 103.579 281.805 104.08C281.538 104.581 281.405 105.152 281.405 105.792C281.405 106.432 281.538 107.003 281.805 107.504C282.082 108.005 282.456 108.395 282.925 108.672C283.405 108.939 283.944 109.072 284.541 109.072ZM296.601 105.648C297.742 105.915 298.313 106.603 298.313 107.712C298.313 108.448 298.041 109.013 297.497 109.408C296.953 109.803 296.142 110 295.065 110H291.241V101.584H294.953C295.913 101.584 296.665 101.771 297.209 102.144C297.753 102.517 298.025 103.051 298.025 103.744C298.025 104.203 297.897 104.597 297.641 104.928C297.396 105.248 297.049 105.488 296.601 105.648ZM292.345 105.328H294.873C295.524 105.328 296.02 105.205 296.361 104.96C296.713 104.715 296.889 104.357 296.889 103.888C296.889 103.419 296.713 103.067 296.361 102.832C296.02 102.597 295.524 102.48 294.873 102.48H292.345V105.328ZM295.017 109.104C295.742 109.104 296.286 108.987 296.649 108.752C297.012 108.517 297.193 108.149 297.193 107.648C297.193 107.147 297.028 106.779 296.697 106.544C296.366 106.299 295.844 106.176 295.129 106.176H292.345V109.104H295.017Z" fill="#8A8A8A"/>
<path d="M8 1H384V-1H8V1ZM391 8V129H393V8H391ZM384 136H8V138H384V136ZM1 129V8H-1V129H1ZM8 136C4.134 136 1 132.866 1 129H-1C-1 133.971 3.02943 138 8 138V136ZM391 129C391 132.866 387.866 136 384 136V138C388.971 138 393 133.971 393 129H391ZM384 1C387.866 1 391 4.13401 391 8H393C393 3.02944 388.971 -1 384 -1V1ZM8 -1C3.02944 -1 -1 3.02943 -1 8H1C1 4.134 4.13401 1 8 1V-1Z" fill="url(#paint0_linear_575_374)"/>
<defs>
<linearGradient id="paint0_linear_575_374" x1="0" y1="0" x2="60.5" y2="93" gradientUnits="userSpaceOnUse">
<stop stop-color="#DA4533"/>
<stop offset="1" stop-color="#DA4533" stop-opacity="0"/>
</linearGradient>
</defs>
</svg>
