<svg width="392" height="137" viewBox="0 0 392 137" fill="none" xmlns="http://www.w3.org/2000/svg">
<path d="M0 8C0 3.58172 3.58172 0 8 0H384C388.418 0 392 3.58172 392 8V129C392 133.418 388.418 137 384 137H8C3.58172 137 0 133.418 0 129V8Z" fill="white" fill-opacity="0.05"/>
<path d="M22.808 49.468L22.736 48.244C24.368 48.052 25.868 47.596 27.236 46.876C28.604 46.156 29.744 45.136 30.656 43.816C31.592 42.496 32.192 40.864 32.456 38.92L32.204 38.884C31.436 39.58 30.704 40.12 30.008 40.504C29.336 40.864 28.544 41.044 27.632 41.044C25.712 41.044 24.164 40.372 22.988 39.028C21.836 37.684 21.26 35.824 21.26 33.448C21.26 31.024 21.908 29.14 23.204 27.796C24.5 26.428 26.3 25.744 28.604 25.744C30.476 25.744 31.976 26.188 33.104 27.076C34.256 27.964 35.096 29.152 35.624 30.64C36.152 32.128 36.416 33.76 36.416 35.536C36.416 37.888 36.08 39.94 35.408 41.692C34.736 43.42 33.788 44.86 32.564 46.012C31.364 47.164 29.936 48.028 28.28 48.604C26.624 49.156 24.8 49.444 22.808 49.468ZM29.036 38.704C29.972 38.704 30.776 38.404 31.448 37.804C32.144 37.18 32.492 36.136 32.492 34.672C32.492 33.184 32.36 31.876 32.096 30.748C31.832 29.62 31.4 28.732 30.8 28.084C30.224 27.436 29.456 27.112 28.496 27.112C27.464 27.112 26.636 27.568 26.012 28.48C25.388 29.392 25.076 30.976 25.076 33.232C25.076 34.864 25.4 36.184 26.048 37.192C26.72 38.2 27.716 38.704 29.036 38.704ZM40.6322 49.468L40.5602 48.244C42.1922 48.052 43.6922 47.596 45.0602 46.876C46.4282 46.156 47.5682 45.136 48.4802 43.816C49.4162 42.496 50.0162 40.864 50.2802 38.92L50.0282 38.884C49.2602 39.58 48.5282 40.12 47.8322 40.504C47.1602 40.864 46.3682 41.044 45.4562 41.044C43.5362 41.044 41.9882 40.372 40.8122 39.028C39.6602 37.684 39.0842 35.824 39.0842 33.448C39.0842 31.024 39.7322 29.14 41.0282 27.796C42.3242 26.428 44.1242 25.744 46.4282 25.744C48.3002 25.744 49.8002 26.188 50.9282 27.076C52.0802 27.964 52.9202 29.152 53.4482 30.64C53.9762 32.128 54.2402 33.76 54.2402 35.536C54.2402 37.888 53.9042 39.94 53.2322 41.692C52.5602 43.42 51.6122 44.86 50.3882 46.012C49.1882 47.164 47.7602 48.028 46.1042 48.604C44.4482 49.156 42.6242 49.444 40.6322 49.468ZM46.8602 38.704C47.7962 38.704 48.6002 38.404 49.2722 37.804C49.9682 37.18 50.3162 36.136 50.3162 34.672C50.3162 33.184 50.1842 31.876 49.9202 30.748C49.6562 29.62 49.2242 28.732 48.6242 28.084C48.0482 27.436 47.2802 27.112 46.3202 27.112C45.2882 27.112 44.4602 27.568 43.8362 28.48C43.2122 29.392 42.9002 30.976 42.9002 33.232C42.9002 34.864 43.2242 36.184 43.8722 37.192C44.5442 38.2 45.5402 38.704 46.8602 38.704ZM66.0524 30.496C66.0524 29.392 65.8604 28.552 65.4764 27.976C65.1164 27.4 64.5884 27.112 63.8924 27.112C63.1964 27.112 62.5604 27.388 61.9844 27.94C61.4324 28.468 60.9884 29.212 60.6524 30.172C60.3404 31.108 60.1844 32.188 60.1844 33.412C60.1844 34.516 60.3404 35.332 60.6524 35.86C60.9644 36.364 61.4444 36.616 62.0924 36.616C62.8364 36.616 63.5084 36.34 64.1084 35.788C64.7084 35.236 65.1764 34.492 65.5124 33.556C65.8724 32.62 66.0524 31.6 66.0524 30.496ZM79.8764 42.556C79.8764 43.9 79.6244 45.124 79.1204 46.228C78.6164 47.308 77.9084 48.16 76.9964 48.784C76.0844 49.408 75.0284 49.72 73.8284 49.72C72.5324 49.72 71.5124 49.324 70.7684 48.532C70.0244 47.74 69.6524 46.564 69.6524 45.004C69.6524 43.636 69.9164 42.412 70.4444 41.332C70.9724 40.252 71.7044 39.4 72.6404 38.776C73.6004 38.152 74.6684 37.84 75.8444 37.84C77.1644 37.84 78.1604 38.248 78.8324 39.064C79.5284 39.856 79.8764 41.02 79.8764 42.556ZM75.3404 24.988H77.2484L62.6684 49.756H60.5804L73.4684 28.12H73.2884C72.6644 28.528 72.0764 28.828 71.5244 29.02C70.9724 29.188 70.3364 29.272 69.6164 29.272C69.2084 29.272 68.8484 29.236 68.5364 29.164C68.2244 29.092 67.7924 28.936 67.2404 28.696L67.1684 28.768C67.2644 29.056 67.3244 29.356 67.3484 29.668C67.3964 29.98 67.4204 30.328 67.4204 30.712C67.4204 32.056 67.1564 33.28 66.6284 34.384C66.1244 35.488 65.4164 36.364 64.5044 37.012C63.5924 37.636 62.5364 37.948 61.3364 37.948C60.0644 37.948 59.0564 37.552 58.3124 36.76C57.5684 35.944 57.1964 34.768 57.1964 33.232C57.1964 31.864 57.4604 30.64 57.9884 29.56C58.5404 28.48 59.2844 27.628 60.2204 27.004C61.1564 26.356 62.1884 26.032 63.3164 26.032C64.0364 26.032 64.6484 26.14 65.1524 26.356C65.6564 26.572 66.1244 26.824 66.5564 27.112C66.9884 27.376 67.4684 27.616 67.9964 27.832C68.5484 28.048 69.2204 28.156 70.0124 28.156C70.5884 28.156 71.1164 28.072 71.5964 27.904C72.0764 27.736 72.6044 27.424 73.1804 26.968C73.7564 26.488 74.4764 25.828 75.3404 24.988ZM78.5084 42.268C78.5084 40.036 77.7884 38.92 76.3484 38.92C75.6284 38.92 74.9804 39.196 74.4044 39.748C73.8524 40.276 73.4084 41.008 73.0724 41.944C72.7604 42.88 72.6044 43.96 72.6044 45.184C72.6044 46.288 72.7604 47.104 73.0724 47.632C73.4084 48.16 73.9004 48.424 74.5484 48.424C75.2924 48.424 75.9644 48.148 76.5644 47.596C77.1644 47.02 77.6324 46.276 77.9684 45.364C78.3284 44.428 78.5084 43.396 78.5084 42.268Z" fill="white"/>
<path d="M30.688 72.8L25.6 82.224C25.2373 82.896 24.8107 83.3973 24.32 83.728C23.84 84.048 23.312 84.208 22.736 84.208C22.3093 84.208 21.8507 84.1067 21.36 83.904L21.696 82.944C22.08 83.0933 22.432 83.168 22.752 83.168C23.488 83.168 24.0907 82.768 24.56 81.968L24.88 81.424L20.336 72.8H21.6L25.504 80.384L29.504 72.8H30.688ZM35.136 84.08C34.304 84.08 33.5573 83.8987 32.896 83.536C32.2453 83.1733 31.7333 82.6667 31.36 82.016C30.9867 81.3547 30.8 80.6133 30.8 79.792C30.8 78.9707 30.9867 78.2347 31.36 77.584C31.7333 76.9333 32.2453 76.4267 32.896 76.064C33.5573 75.7013 34.304 75.52 35.136 75.52C35.8613 75.52 36.5067 75.664 37.072 75.952C37.648 76.2293 38.1013 76.64 38.432 77.184L37.584 77.76C37.3067 77.344 36.9547 77.0347 36.528 76.832C36.1013 76.6187 35.6373 76.512 35.136 76.512C34.528 76.512 33.9787 76.6507 33.488 76.928C33.008 77.1947 32.6293 77.5787 32.352 78.08C32.0853 78.5813 31.952 79.152 31.952 79.792C31.952 80.4427 32.0853 81.0187 32.352 81.52C32.6293 82.0107 33.008 82.3947 33.488 82.672C33.9787 82.9387 34.528 83.072 35.136 83.072C35.6373 83.072 36.1013 82.9707 36.528 82.768C36.9547 82.5653 37.3067 82.256 37.584 81.84L38.432 82.416C38.1013 82.96 37.648 83.376 37.072 83.664C36.496 83.9413 35.8507 84.08 35.136 84.08ZM48.1836 75.584V84H47.0476V76.592H41.7676V84H40.6316V75.584H48.1836ZM58.7729 80.144H51.7329C51.7969 81.0187 52.1329 81.728 52.7409 82.272C53.3489 82.8053 54.1169 83.072 55.0449 83.072C55.5675 83.072 56.0475 82.9813 56.4849 82.8C56.9222 82.608 57.3009 82.3307 57.6209 81.968L58.2609 82.704C57.8875 83.152 57.4182 83.4933 56.8529 83.728C56.2982 83.9627 55.6849 84.08 55.0129 84.08C54.1489 84.08 53.3809 83.8987 52.7089 83.536C52.0475 83.1627 51.5302 82.6507 51.1569 82C50.7835 81.3493 50.5969 80.6133 50.5969 79.792C50.5969 78.9707 50.7729 78.2347 51.1249 77.584C51.4875 76.9333 51.9782 76.4267 52.5969 76.064C53.2262 75.7013 53.9302 75.52 54.7089 75.52C55.4875 75.52 56.1862 75.7013 56.8049 76.064C57.4235 76.4267 57.9089 76.9333 58.2609 77.584C58.6129 78.224 58.7889 78.96 58.7889 79.792L58.7729 80.144ZM54.7089 76.496C53.8982 76.496 53.2155 76.7573 52.6609 77.28C52.1169 77.792 51.8075 78.464 51.7329 79.296H57.7009C57.6262 78.464 57.3115 77.792 56.7569 77.28C56.2129 76.7573 55.5302 76.496 54.7089 76.496ZM66.3331 84L63.6611 80.48L60.9731 84H59.6931L63.0211 79.68L59.8531 75.584H61.1331L63.6611 78.88L66.1891 75.584H67.4371L64.2691 79.68L67.6291 84H66.3331ZM81.2305 75.584V84H80.0945V76.592H74.8145V84H73.6785V75.584H81.2305ZM87.9318 84.08C87.1211 84.08 86.3904 83.8987 85.7398 83.536C85.0891 83.1627 84.5771 82.6507 84.2038 82C83.8304 81.3493 83.6438 80.6133 83.6438 79.792C83.6438 78.9707 83.8304 78.2347 84.2038 77.584C84.5771 76.9333 85.0891 76.4267 85.7398 76.064C86.3904 75.7013 87.1211 75.52 87.9318 75.52C88.7424 75.52 89.4731 75.7013 90.1238 76.064C90.7744 76.4267 91.2811 76.9333 91.6438 77.584C92.0171 78.2347 92.2038 78.9707 92.2038 79.792C92.2038 80.6133 92.0171 81.3493 91.6438 82C91.2811 82.6507 90.7744 83.1627 90.1238 83.536C89.4731 83.8987 88.7424 84.08 87.9318 84.08ZM87.9318 83.072C88.5291 83.072 89.0624 82.9387 89.5318 82.672C90.0118 82.3947 90.3851 82.0053 90.6518 81.504C90.9184 81.0027 91.0518 80.432 91.0518 79.792C91.0518 79.152 90.9184 78.5813 90.6518 78.08C90.3851 77.5787 90.0118 77.1947 89.5318 76.928C89.0624 76.6507 88.5291 76.512 87.9318 76.512C87.3344 76.512 86.7958 76.6507 86.3158 76.928C85.8464 77.1947 85.4731 77.5787 85.1957 78.08C84.9291 78.5813 84.7958 79.152 84.7958 79.792C84.7958 80.432 84.9291 81.0027 85.1957 81.504C85.4731 82.0053 85.8464 82.3947 86.3158 82.672C86.7958 82.9387 87.3344 83.072 87.9318 83.072ZM101.465 75.584V84H100.329V76.592H96.2968L96.1848 78.672C96.0994 80.4213 95.8968 81.7653 95.5768 82.704C95.2568 83.6427 94.6861 84.112 93.8648 84.112C93.6408 84.112 93.3688 84.0693 93.0488 83.984L93.1288 83.008C93.3208 83.0507 93.4541 83.072 93.5288 83.072C93.9661 83.072 94.2968 82.8693 94.5208 82.464C94.7448 82.0587 94.8941 81.5573 94.9688 80.96C95.0434 80.3627 95.1074 79.5733 95.1608 78.592L95.3048 75.584H101.465ZM111.846 75.584L107.638 85.008C107.297 85.7973 106.902 86.3573 106.454 86.688C106.006 87.0187 105.467 87.184 104.838 87.184C104.433 87.184 104.054 87.12 103.702 86.992C103.35 86.864 103.046 86.672 102.79 86.416L103.318 85.568C103.745 85.9947 104.257 86.208 104.854 86.208C105.238 86.208 105.563 86.1013 105.83 85.888C106.107 85.6747 106.363 85.312 106.598 84.8L106.966 83.984L103.206 75.584H104.39L107.558 82.736L110.726 75.584H111.846ZM119.968 75.584V84H118.832V80.496C117.861 80.9227 116.907 81.136 115.968 81.136C114.955 81.136 114.165 80.9067 113.6 80.448C113.035 79.9787 112.752 79.28 112.752 78.352V75.584H113.888V78.288C113.888 78.9173 114.091 79.3973 114.496 79.728C114.901 80.048 115.461 80.208 116.176 80.208C116.965 80.208 117.851 80 118.832 79.584V75.584H119.968ZM130.554 80.144H123.514C123.578 81.0187 123.914 81.728 124.522 82.272C125.13 82.8053 125.898 83.072 126.826 83.072C127.349 83.072 127.829 82.9813 128.266 82.8C128.703 82.608 129.082 82.3307 129.402 81.968L130.042 82.704C129.669 83.152 129.199 83.4933 128.634 83.728C128.079 83.9627 127.466 84.08 126.794 84.08C125.93 84.08 125.162 83.8987 124.49 83.536C123.829 83.1627 123.311 82.6507 122.938 82C122.565 81.3493 122.378 80.6133 122.378 79.792C122.378 78.9707 122.554 78.2347 122.906 77.584C123.269 76.9333 123.759 76.4267 124.378 76.064C125.007 75.7013 125.711 75.52 126.49 75.52C127.269 75.52 127.967 75.7013 128.586 76.064C129.205 76.4267 129.69 76.9333 130.042 77.584C130.394 78.224 130.57 78.96 130.57 79.792L130.554 80.144ZM126.49 76.496C125.679 76.496 124.997 76.7573 124.442 77.28C123.898 77.792 123.589 78.464 123.514 79.296H129.482C129.407 78.464 129.093 77.792 128.538 77.28C127.994 76.7573 127.311 76.496 126.49 76.496ZM133.085 75.584H134.221V79.312H139.517V75.584H140.653V84H139.517V80.288H134.221V84H133.085V75.584ZM143.882 75.584H145.018V82.272L150.634 75.584H151.642V84H150.506V77.312L144.906 84H143.882V75.584ZM161.361 75.584V84H160.321V81.216H157.681H157.361L155.409 84H154.177L156.273 81.056C155.623 80.8747 155.121 80.5653 154.769 80.128C154.417 79.6907 154.241 79.136 154.241 78.464C154.241 77.5253 154.561 76.8107 155.201 76.32C155.841 75.8293 156.716 75.584 157.825 75.584H161.361ZM155.393 78.496C155.393 79.744 156.188 80.368 157.777 80.368H160.321V76.592H157.857C156.215 76.592 155.393 77.2267 155.393 78.496ZM29.168 101.584V110H28.032V102.592H22.752V110H21.616V101.584H29.168ZM35.2933 101.52C36.3919 101.52 37.2346 101.797 37.8213 102.352C38.4079 102.896 38.7013 103.707 38.7013 104.784V110H37.6133V108.688C37.3573 109.125 36.9786 109.467 36.4773 109.712C35.9866 109.957 35.3999 110.08 34.7173 110.08C33.7786 110.08 33.0319 109.856 32.4773 109.408C31.9226 108.96 31.6453 108.368 31.6453 107.632C31.6453 106.917 31.9013 106.341 32.4133 105.904C32.9359 105.467 33.7626 105.248 34.8932 105.248H37.5653V104.736C37.5653 104.011 37.3626 103.461 36.9573 103.088C36.5519 102.704 35.9599 102.512 35.1813 102.512C34.6479 102.512 34.1359 102.603 33.6453 102.784C33.1546 102.955 32.7333 103.195 32.3813 103.504L31.8693 102.656C32.2959 102.293 32.8079 102.016 33.4053 101.824C34.0026 101.621 34.6319 101.52 35.2933 101.52ZM34.8932 109.184C35.5333 109.184 36.0826 109.04 36.5413 108.752C36.9999 108.453 37.3413 108.027 37.5653 107.472V106.096H34.9253C33.4853 106.096 32.7653 106.597 32.7653 107.6C32.7653 108.091 32.9519 108.48 33.3253 108.768C33.6986 109.045 34.2213 109.184 34.8932 109.184ZM47.6454 102.592H44.4614V110H43.3254V102.592H40.1414V101.584H47.6454V102.592ZM56.2573 106.144H49.2173C49.2813 107.019 49.6173 107.728 50.2253 108.272C50.8333 108.805 51.6013 109.072 52.5293 109.072C53.0519 109.072 53.5319 108.981 53.9693 108.8C54.4066 108.608 54.7853 108.331 55.1053 107.968L55.7453 108.704C55.3719 109.152 54.9026 109.493 54.3373 109.728C53.7826 109.963 53.1693 110.08 52.4973 110.08C51.6333 110.08 50.8653 109.899 50.1933 109.536C49.5319 109.163 49.0146 108.651 48.6413 108C48.2679 107.349 48.0813 106.613 48.0813 105.792C48.0813 104.971 48.2573 104.235 48.6093 103.584C48.9719 102.933 49.4626 102.427 50.0813 102.064C50.7106 101.701 51.4146 101.52 52.1933 101.52C52.9719 101.52 53.6706 101.701 54.2893 102.064C54.9079 102.427 55.3933 102.933 55.7453 103.584C56.0973 104.224 56.2733 104.96 56.2733 105.792L56.2573 106.144ZM52.1933 102.496C51.3826 102.496 50.6999 102.757 50.1453 103.28C49.6013 103.792 49.2919 104.464 49.2173 105.296H55.1853C55.1106 104.464 54.7959 103.792 54.2413 103.28C53.6973 102.757 53.0146 102.496 52.1933 102.496ZM58.7879 101.584H59.9239V105.312H65.2199V101.584H66.3559V110H65.2199V106.288H59.9239V110H58.7879V101.584ZM75.5048 102.592H72.3208V110H71.1848V102.592H68.0008V101.584H75.5048V102.592ZM80.2286 110.08C79.418 110.08 78.6873 109.899 78.0366 109.536C77.386 109.163 76.874 108.651 76.5006 108C76.1273 107.349 75.9406 106.613 75.9406 105.792C75.9406 104.971 76.1273 104.235 76.5006 103.584C76.874 102.933 77.386 102.427 78.0366 102.064C78.6873 101.701 79.418 101.52 80.2286 101.52C81.0393 101.52 81.77 101.701 82.4206 102.064C83.0713 102.427 83.578 102.933 83.9406 103.584C84.314 104.235 84.5006 104.971 84.5006 105.792C84.5006 106.613 84.314 107.349 83.9406 108C83.578 108.651 83.0713 109.163 82.4206 109.536C81.77 109.899 81.0393 110.08 80.2286 110.08ZM80.2286 109.072C80.826 109.072 81.3593 108.939 81.8286 108.672C82.3086 108.395 82.682 108.005 82.9486 107.504C83.2153 107.003 83.3486 106.432 83.3486 105.792C83.3486 105.152 83.2153 104.581 82.9486 104.08C82.682 103.579 82.3086 103.195 81.8286 102.928C81.3593 102.651 80.826 102.512 80.2286 102.512C79.6313 102.512 79.0926 102.651 78.6126 102.928C78.1433 103.195 77.77 103.579 77.4926 104.08C77.226 104.581 77.0926 105.152 77.0926 105.792C77.0926 106.432 77.226 107.003 77.4926 107.504C77.77 108.005 78.1433 108.395 78.6126 108.672C79.0926 108.939 79.6313 109.072 80.2286 109.072ZM92.2885 105.648C93.4298 105.915 94.0005 106.603 94.0005 107.712C94.0005 108.448 93.7285 109.013 93.1845 109.408C92.6405 109.803 91.8298 110 90.7525 110H86.9285V101.584H90.6405C91.6005 101.584 92.3525 101.771 92.8965 102.144C93.4405 102.517 93.7125 103.051 93.7125 103.744C93.7125 104.203 93.5845 104.597 93.3285 104.928C93.0832 105.248 92.7365 105.488 92.2885 105.648ZM88.0325 105.328H90.5605C91.2112 105.328 91.7072 105.205 92.0485 104.96C92.4005 104.715 92.5765 104.357 92.5765 103.888C92.5765 103.419 92.4005 103.067 92.0485 102.832C91.7072 102.597 91.2112 102.48 90.5605 102.48H88.0325V105.328ZM90.7045 109.104C91.4298 109.104 91.9738 108.987 92.3365 108.752C92.6992 108.517 92.8805 108.149 92.8805 107.648C92.8805 107.147 92.7152 106.779 92.3845 106.544C92.0538 106.299 91.5312 106.176 90.8165 106.176H88.0325V109.104H90.7045Z" fill="#8A8A8A"/>
<path d="M8 1H384V-1H8V1ZM391 8V129H393V8H391ZM384 136H8V138H384V136ZM1 129V8H-1V129H1ZM8 136C4.134 136 1 132.866 1 129H-1C-1 133.971 3.02943 138 8 138V136ZM391 129C391 132.866 387.866 136 384 136V138C388.971 138 393 133.971 393 129H391ZM384 1C387.866 1 391 4.13401 391 8H393C393 3.02944 388.971 -1 384 -1V1ZM8 -1C3.02944 -1 -1 3.02943 -1 8H1C1 4.134 4.13401 1 8 1V-1Z" fill="url(#paint0_linear_575_373)"/>
<defs>
<linearGradient id="paint0_linear_575_373" x1="0" y1="0" x2="60.5" y2="93" gradientUnits="userSpaceOnUse">
<stop stop-color="#DA4533"/>
<stop offset="1" stop-color="#DA4533" stop-opacity="0"/>
</linearGradient>
</defs>
</svg>
