<svg width="392" height="137" viewBox="0 0 392 137" fill="none" xmlns="http://www.w3.org/2000/svg">
<path d="M0 8C0 3.58172 3.58172 0 8 0H384C388.418 0 392 3.58172 392 8V129C392 133.418 388.418 137 384 137H8C3.58172 137 0 133.418 0 129V8Z" fill="white" fill-opacity="0.05"/>
<path d="M22.808 49.468L22.736 48.244C24.368 48.052 25.868 47.596 27.236 46.876C28.604 46.156 29.744 45.136 30.656 43.816C31.592 42.496 32.192 40.864 32.456 38.92L32.204 38.884C31.436 39.58 30.704 40.12 30.008 40.504C29.336 40.864 28.544 41.044 27.632 41.044C25.712 41.044 24.164 40.372 22.988 39.028C21.836 37.684 21.26 35.824 21.26 33.448C21.26 31.024 21.908 29.14 23.204 27.796C24.5 26.428 26.3 25.744 28.604 25.744C30.476 25.744 31.976 26.188 33.104 27.076C34.256 27.964 35.096 29.152 35.624 30.64C36.152 32.128 36.416 33.76 36.416 35.536C36.416 37.888 36.08 39.94 35.408 41.692C34.736 43.42 33.788 44.86 32.564 46.012C31.364 47.164 29.936 48.028 28.28 48.604C26.624 49.156 24.8 49.444 22.808 49.468ZM29.036 38.704C29.972 38.704 30.776 38.404 31.448 37.804C32.144 37.18 32.492 36.136 32.492 34.672C32.492 33.184 32.36 31.876 32.096 30.748C31.832 29.62 31.4 28.732 30.8 28.084C30.224 27.436 29.456 27.112 28.496 27.112C27.464 27.112 26.636 27.568 26.012 28.48C25.388 29.392 25.076 30.976 25.076 33.232C25.076 34.864 25.4 36.184 26.048 37.192C26.72 38.2 27.716 38.704 29.036 38.704ZM46.5722 49.468C45.1562 49.468 43.8962 49.264 42.7922 48.856C41.6882 48.424 40.8122 47.8 40.1642 46.984C39.5402 46.144 39.2282 45.112 39.2282 43.888C39.2282 42.928 39.4082 42.124 39.7682 41.476C40.1522 40.804 40.7162 40.192 41.4602 39.64C42.2042 39.064 43.1282 38.416 44.2322 37.696V37.228L45.6722 38.056C45.0482 38.656 44.4962 39.22 44.0162 39.748C43.5362 40.276 43.1522 40.84 42.8642 41.44C42.6002 42.04 42.4682 42.76 42.4682 43.6C42.4682 45.16 42.8522 46.324 43.6202 47.092C44.4122 47.836 45.4442 48.208 46.7162 48.208C47.3882 48.208 48.0122 48.076 48.5882 47.812C49.1882 47.524 49.6682 47.128 50.0282 46.624C50.3882 46.096 50.5682 45.436 50.5682 44.644C50.5682 43.852 50.4002 43.144 50.0642 42.52C49.7522 41.896 49.1762 41.236 48.3362 40.54C47.5202 39.844 46.3682 38.992 44.8802 37.984L44.7002 37.912C43.3322 37 42.2882 36.196 41.5682 35.5C40.8482 34.78 40.3562 34.072 40.0922 33.376C39.8522 32.68 39.7322 31.924 39.7322 31.108C39.7322 29.98 40.0322 29.02 40.6322 28.228C41.2562 27.412 42.0962 26.788 43.1522 26.356C44.2322 25.9 45.4682 25.672 46.8602 25.672C48.0842 25.672 49.1762 25.888 50.1362 26.32C51.1202 26.752 51.8882 27.34 52.4402 28.084C53.0162 28.828 53.3042 29.668 53.3042 30.604C53.3042 31.468 53.1482 32.212 52.8362 32.836C52.5482 33.46 52.0682 34.036 51.3962 34.564C50.7242 35.068 49.8242 35.62 48.6962 36.22V36.688L47.0762 35.788C48.2282 35.068 49.0322 34.312 49.4882 33.52C49.9442 32.728 50.1722 31.744 50.1722 30.568C50.1722 29.416 49.8722 28.54 49.2722 27.94C48.6722 27.316 47.8562 27.004 46.8242 27.004C45.7202 27.004 44.8322 27.304 44.1602 27.904C43.5122 28.504 43.1882 29.332 43.1882 30.388C43.1882 31.444 43.5602 32.368 44.3042 33.16C45.0482 33.928 46.2602 34.816 47.9402 35.824L48.1922 36.04C49.7282 36.952 50.9282 37.792 51.7922 38.56C52.6802 39.304 53.3042 40.06 53.6642 40.828C54.0482 41.572 54.2402 42.46 54.2402 43.492C54.2402 44.788 53.9042 45.88 53.2322 46.768C52.5842 47.656 51.6842 48.328 50.5322 48.784C49.3802 49.24 48.0602 49.468 46.5722 49.468ZM66.0524 30.496C66.0524 29.392 65.8604 28.552 65.4764 27.976C65.1164 27.4 64.5884 27.112 63.8924 27.112C63.1964 27.112 62.5604 27.388 61.9844 27.94C61.4324 28.468 60.9884 29.212 60.6524 30.172C60.3404 31.108 60.1844 32.188 60.1844 33.412C60.1844 34.516 60.3404 35.332 60.6524 35.86C60.9644 36.364 61.4444 36.616 62.0924 36.616C62.8364 36.616 63.5084 36.34 64.1084 35.788C64.7084 35.236 65.1764 34.492 65.5124 33.556C65.8724 32.62 66.0524 31.6 66.0524 30.496ZM79.8764 42.556C79.8764 43.9 79.6244 45.124 79.1204 46.228C78.6164 47.308 77.9084 48.16 76.9964 48.784C76.0844 49.408 75.0284 49.72 73.8284 49.72C72.5324 49.72 71.5124 49.324 70.7684 48.532C70.0244 47.74 69.6524 46.564 69.6524 45.004C69.6524 43.636 69.9164 42.412 70.4444 41.332C70.9724 40.252 71.7044 39.4 72.6404 38.776C73.6004 38.152 74.6684 37.84 75.8444 37.84C77.1644 37.84 78.1604 38.248 78.8324 39.064C79.5284 39.856 79.8764 41.02 79.8764 42.556ZM75.3404 24.988H77.2484L62.6684 49.756H60.5804L73.4684 28.12H73.2884C72.6644 28.528 72.0764 28.828 71.5244 29.02C70.9724 29.188 70.3364 29.272 69.6164 29.272C69.2084 29.272 68.8484 29.236 68.5364 29.164C68.2244 29.092 67.7924 28.936 67.2404 28.696L67.1684 28.768C67.2644 29.056 67.3244 29.356 67.3484 29.668C67.3964 29.98 67.4204 30.328 67.4204 30.712C67.4204 32.056 67.1564 33.28 66.6284 34.384C66.1244 35.488 65.4164 36.364 64.5044 37.012C63.5924 37.636 62.5364 37.948 61.3364 37.948C60.0644 37.948 59.0564 37.552 58.3124 36.76C57.5684 35.944 57.1964 34.768 57.1964 33.232C57.1964 31.864 57.4604 30.64 57.9884 29.56C58.5404 28.48 59.2844 27.628 60.2204 27.004C61.1564 26.356 62.1884 26.032 63.3164 26.032C64.0364 26.032 64.6484 26.14 65.1524 26.356C65.6564 26.572 66.1244 26.824 66.5564 27.112C66.9884 27.376 67.4684 27.616 67.9964 27.832C68.5484 28.048 69.2204 28.156 70.0124 28.156C70.5884 28.156 71.1164 28.072 71.5964 27.904C72.0764 27.736 72.6044 27.424 73.1804 26.968C73.7564 26.488 74.4764 25.828 75.3404 24.988ZM78.5084 42.268C78.5084 40.036 77.7884 38.92 76.3484 38.92C75.6284 38.92 74.9804 39.196 74.4044 39.748C73.8524 40.276 73.4084 41.008 73.0724 41.944C72.7604 42.88 72.6044 43.96 72.6044 45.184C72.6044 46.288 72.7604 47.104 73.0724 47.632C73.4084 48.16 73.9004 48.424 74.5484 48.424C75.2924 48.424 75.9644 48.148 76.5644 47.596C77.1644 47.02 77.6324 46.276 77.9684 45.364C78.3284 44.428 78.5084 43.396 78.5084 42.268Z" fill="white"/>
<path d="M30.688 72.8L25.6 82.224C25.2373 82.896 24.8107 83.3973 24.32 83.728C23.84 84.048 23.312 84.208 22.736 84.208C22.3093 84.208 21.8507 84.1067 21.36 83.904L21.696 82.944C22.08 83.0933 22.432 83.168 22.752 83.168C23.488 83.168 24.0907 82.768 24.56 81.968L24.88 81.424L20.336 72.8H21.6L25.504 80.384L29.504 72.8H30.688ZM35.136 84.08C34.304 84.08 33.5573 83.8987 32.896 83.536C32.2453 83.1733 31.7333 82.6667 31.36 82.016C30.9867 81.3547 30.8 80.6133 30.8 79.792C30.8 78.9707 30.9867 78.2347 31.36 77.584C31.7333 76.9333 32.2453 76.4267 32.896 76.064C33.5573 75.7013 34.304 75.52 35.136 75.52C35.8613 75.52 36.5067 75.664 37.072 75.952C37.648 76.2293 38.1013 76.64 38.432 77.184L37.584 77.76C37.3067 77.344 36.9547 77.0347 36.528 76.832C36.1013 76.6187 35.6373 76.512 35.136 76.512C34.528 76.512 33.9787 76.6507 33.488 76.928C33.008 77.1947 32.6293 77.5787 32.352 78.08C32.0853 78.5813 31.952 79.152 31.952 79.792C31.952 80.4427 32.0853 81.0187 32.352 81.52C32.6293 82.0107 33.008 82.3947 33.488 82.672C33.9787 82.9387 34.528 83.072 35.136 83.072C35.6373 83.072 36.1013 82.9707 36.528 82.768C36.9547 82.5653 37.3067 82.256 37.584 81.84L38.432 82.416C38.1013 82.96 37.648 83.376 37.072 83.664C36.496 83.9413 35.8507 84.08 35.136 84.08ZM48.1836 75.584V84H47.0476V76.592H41.7676V84H40.6316V75.584H48.1836ZM58.7729 80.144H51.7329C51.7969 81.0187 52.1329 81.728 52.7409 82.272C53.3489 82.8053 54.1169 83.072 55.0449 83.072C55.5675 83.072 56.0475 82.9813 56.4849 82.8C56.9222 82.608 57.3009 82.3307 57.6209 81.968L58.2609 82.704C57.8875 83.152 57.4182 83.4933 56.8529 83.728C56.2982 83.9627 55.6849 84.08 55.0129 84.08C54.1489 84.08 53.3809 83.8987 52.7089 83.536C52.0475 83.1627 51.5302 82.6507 51.1569 82C50.7835 81.3493 50.5969 80.6133 50.5969 79.792C50.5969 78.9707 50.7729 78.2347 51.1249 77.584C51.4875 76.9333 51.9782 76.4267 52.5969 76.064C53.2262 75.7013 53.9302 75.52 54.7089 75.52C55.4875 75.52 56.1862 75.7013 56.8049 76.064C57.4235 76.4267 57.9089 76.9333 58.2609 77.584C58.6129 78.224 58.7889 78.96 58.7889 79.792L58.7729 80.144ZM54.7089 76.496C53.8982 76.496 53.2155 76.7573 52.6609 77.28C52.1169 77.792 51.8075 78.464 51.7329 79.296H57.7009C57.6262 78.464 57.3115 77.792 56.7569 77.28C56.2129 76.7573 55.5302 76.496 54.7089 76.496ZM66.3331 84L63.6611 80.48L60.9731 84H59.6931L63.0211 79.68L59.8531 75.584H61.1331L63.6611 78.88L66.1891 75.584H67.4371L64.2691 79.68L67.6291 84H66.3331ZM78.0145 75.52C78.8038 75.52 79.5185 75.7013 80.1585 76.064C80.7985 76.416 81.2998 76.9173 81.6625 77.568C82.0252 78.2187 82.2065 78.96 82.2065 79.792C82.2065 80.6347 82.0252 81.3813 81.6625 82.032C81.2998 82.6827 80.7985 83.1893 80.1585 83.552C79.5292 83.904 78.8145 84.08 78.0145 84.08C77.3318 84.08 76.7132 83.9413 76.1585 83.664C75.6145 83.376 75.1665 82.96 74.8145 82.416V87.104H73.6785V75.584H74.7665V77.248C75.1078 76.6933 75.5558 76.2667 76.1105 75.968C76.6758 75.6693 77.3105 75.52 78.0145 75.52ZM77.9345 83.072C78.5212 83.072 79.0545 82.9387 79.5345 82.672C80.0145 82.3947 80.3878 82.0053 80.6545 81.504C80.9318 81.0027 81.0705 80.432 81.0705 79.792C81.0705 79.152 80.9318 78.5867 80.6545 78.096C80.3878 77.5947 80.0145 77.2053 79.5345 76.928C79.0545 76.6507 78.5212 76.512 77.9345 76.512C77.3372 76.512 76.7985 76.6507 76.3185 76.928C75.8492 77.2053 75.4758 77.5947 75.1985 78.096C74.9318 78.5867 74.7985 79.152 74.7985 79.792C74.7985 80.432 74.9318 81.0027 75.1985 81.504C75.4758 82.0053 75.8492 82.3947 76.3185 82.672C76.7985 82.9387 77.3372 83.072 77.9345 83.072ZM92.0073 80.144H84.9673C85.0313 81.0187 85.3673 81.728 85.9753 82.272C86.5833 82.8053 87.3513 83.072 88.2793 83.072C88.8019 83.072 89.2819 82.9813 89.7193 82.8C90.1566 82.608 90.5353 82.3307 90.8553 81.968L91.4953 82.704C91.1219 83.152 90.6526 83.4933 90.0873 83.728C89.5326 83.9627 88.9193 84.08 88.2473 84.08C87.3833 84.08 86.6153 83.8987 85.9433 83.536C85.2819 83.1627 84.7646 82.6507 84.3913 82C84.0179 81.3493 83.8313 80.6133 83.8313 79.792C83.8313 78.9707 84.0073 78.2347 84.3593 77.584C84.7219 76.9333 85.2126 76.4267 85.8313 76.064C86.4606 75.7013 87.1646 75.52 87.9433 75.52C88.7219 75.52 89.4206 75.7013 90.0393 76.064C90.6579 76.4267 91.1433 76.9333 91.4953 77.584C91.8473 78.224 92.0233 78.96 92.0233 79.792L92.0073 80.144ZM87.9433 76.496C87.1326 76.496 86.4499 76.7573 85.8953 77.28C85.3513 77.792 85.0419 78.464 84.9673 79.296H90.9353C90.8606 78.464 90.5459 77.792 89.9913 77.28C89.4473 76.7573 88.7646 76.496 87.9433 76.496ZM100.49 76.592H95.6739V84H94.5379V75.584H100.49V76.592ZM102.132 75.584H103.268V82.272L108.884 75.584H109.892V84H108.756V77.312L103.156 84H102.132V75.584ZM116.667 84.08C115.835 84.08 115.089 83.8987 114.427 83.536C113.777 83.1733 113.265 82.6667 112.891 82.016C112.518 81.3547 112.331 80.6133 112.331 79.792C112.331 78.9707 112.518 78.2347 112.891 77.584C113.265 76.9333 113.777 76.4267 114.427 76.064C115.089 75.7013 115.835 75.52 116.667 75.52C117.393 75.52 118.038 75.664 118.603 75.952C119.179 76.2293 119.633 76.64 119.963 77.184L119.115 77.76C118.838 77.344 118.486 77.0347 118.059 76.832C117.633 76.6187 117.169 76.512 116.667 76.512C116.059 76.512 115.51 76.6507 115.019 76.928C114.539 77.1947 114.161 77.5787 113.883 78.08C113.617 78.5813 113.483 79.152 113.483 79.792C113.483 80.4427 113.617 81.0187 113.883 81.52C114.161 82.0107 114.539 82.3947 115.019 82.672C115.51 82.9387 116.059 83.072 116.667 83.072C117.169 83.072 117.633 82.9707 118.059 82.768C118.486 82.5653 118.838 82.256 119.115 81.84L119.963 82.416C119.633 82.96 119.179 83.376 118.603 83.664C118.027 83.9413 117.382 84.08 116.667 84.08ZM127.927 76.592H124.743V84H123.607V76.592H120.423V75.584H127.927V76.592ZM133.905 75.52C134.694 75.52 135.409 75.7013 136.049 76.064C136.689 76.416 137.19 76.9173 137.553 77.568C137.916 78.2187 138.097 78.96 138.097 79.792C138.097 80.6347 137.916 81.3813 137.553 82.032C137.19 82.6827 136.689 83.1893 136.049 83.552C135.42 83.904 134.705 84.08 133.905 84.08C133.222 84.08 132.604 83.9413 132.049 83.664C131.505 83.376 131.057 82.96 130.705 82.416V87.104H129.569V75.584H130.657V77.248C130.998 76.6933 131.446 76.2667 132.001 75.968C132.566 75.6693 133.201 75.52 133.905 75.52ZM133.825 83.072C134.412 83.072 134.945 82.9387 135.425 82.672C135.905 82.3947 136.278 82.0053 136.545 81.504C136.822 81.0027 136.961 80.432 136.961 79.792C136.961 79.152 136.822 78.5867 136.545 78.096C136.278 77.5947 135.905 77.2053 135.425 76.928C134.945 76.6507 134.412 76.512 133.825 76.512C133.228 76.512 132.689 76.6507 132.209 76.928C131.74 77.2053 131.366 77.5947 131.089 78.096C130.822 78.5867 130.689 79.152 130.689 79.792C130.689 80.432 130.822 81.0027 131.089 81.504C131.366 82.0053 131.74 82.3947 132.209 82.672C132.689 82.9387 133.228 83.072 133.825 83.072ZM143.387 75.52C144.486 75.52 145.328 75.7973 145.915 76.352C146.502 76.896 146.795 77.7067 146.795 78.784V84H145.707V82.688C145.451 83.1253 145.072 83.4667 144.571 83.712C144.08 83.9573 143.494 84.08 142.811 84.08C141.872 84.08 141.126 83.856 140.571 83.408C140.016 82.96 139.739 82.368 139.739 81.632C139.739 80.9173 139.995 80.3413 140.507 79.904C141.03 79.4667 141.856 79.248 142.987 79.248H145.659V78.736C145.659 78.0107 145.456 77.4613 145.051 77.088C144.646 76.704 144.054 76.512 143.275 76.512C142.742 76.512 142.23 76.6027 141.739 76.784C141.248 76.9547 140.827 77.1947 140.475 77.504L139.963 76.656C140.39 76.2933 140.902 76.016 141.499 75.824C142.096 75.6213 142.726 75.52 143.387 75.52ZM142.987 83.184C143.627 83.184 144.176 83.04 144.635 82.752C145.094 82.4533 145.435 82.0267 145.659 81.472V80.096H143.019C141.579 80.096 140.859 80.5973 140.859 81.6C140.859 82.0907 141.046 82.48 141.419 82.768C141.792 83.0453 142.315 83.184 142.987 83.184ZM158.587 83.008V86.112H157.515V84H149.819V75.584H150.955V83.008H156.091V75.584H157.227V83.008H158.587ZM160.757 75.584H161.893V82.272L167.509 75.584H168.517V84H167.381V77.312L161.781 84H160.757V75.584ZM171.772 75.584H172.908V82.272L178.524 75.584H179.532V84H178.396V77.312L172.796 84H171.772V75.584ZM27.536 102.592H24.352V110H23.216V102.592H20.032V101.584H27.536V102.592ZM32.2599 110.08C31.4492 110.08 30.7185 109.899 30.0679 109.536C29.4172 109.163 28.9052 108.651 28.5319 108C28.1585 107.349 27.9719 106.613 27.9719 105.792C27.9719 104.971 28.1585 104.235 28.5319 103.584C28.9052 102.933 29.4172 102.427 30.0679 102.064C30.7185 101.701 31.4492 101.52 32.2599 101.52C33.0705 101.52 33.8012 101.701 34.4519 102.064C35.1025 102.427 35.6092 102.933 35.9719 103.584C36.3452 104.235 36.5319 104.971 36.5319 105.792C36.5319 106.613 36.3452 107.349 35.9719 108C35.6092 108.651 35.1025 109.163 34.4519 109.536C33.8012 109.899 33.0705 110.08 32.2599 110.08ZM32.2599 109.072C32.8572 109.072 33.3905 108.939 33.8599 108.672C34.3399 108.395 34.7132 108.005 34.9799 107.504C35.2465 107.003 35.3799 106.432 35.3799 105.792C35.3799 105.152 35.2465 104.581 34.9799 104.08C34.7132 103.579 34.3399 103.195 33.8599 102.928C33.3905 102.651 32.8572 102.512 32.2599 102.512C31.6625 102.512 31.1239 102.651 30.6439 102.928C30.1745 103.195 29.8012 103.579 29.5239 104.08C29.2572 104.581 29.1239 105.152 29.1239 105.792C29.1239 106.432 29.2572 107.003 29.5239 107.504C29.8012 108.005 30.1745 108.395 30.6439 108.672C31.1239 108.939 31.6625 109.072 32.2599 109.072ZM44.3198 105.648C45.4611 105.915 46.0318 106.603 46.0318 107.712C46.0318 108.448 45.7598 109.013 45.2158 109.408C44.6718 109.803 43.8611 110 42.7838 110H38.9598V101.584H42.6718C43.6318 101.584 44.3838 101.771 44.9278 102.144C45.4718 102.517 45.7438 103.051 45.7438 103.744C45.7438 104.203 45.6158 104.597 45.3598 104.928C45.1144 105.248 44.7678 105.488 44.3198 105.648ZM40.0638 105.328H42.5918C43.2424 105.328 43.7384 105.205 44.0798 104.96C44.4318 104.715 44.6078 104.357 44.6078 103.888C44.6078 103.419 44.4318 103.067 44.0798 102.832C43.7384 102.597 43.2424 102.48 42.5918 102.48H40.0638V105.328ZM42.7358 109.104C43.4611 109.104 44.0051 108.987 44.3678 108.752C44.7304 108.517 44.9118 108.149 44.9118 107.648C44.9118 107.147 44.7464 106.779 44.4158 106.544C44.0851 106.299 43.5624 106.176 42.8478 106.176H40.0638V109.104H42.7358ZM51.5901 101.52C52.6888 101.52 53.5315 101.797 54.1181 102.352C54.7048 102.896 54.9981 103.707 54.9981 104.784V110H53.9101V108.688C53.6541 109.125 53.2755 109.467 52.7741 109.712C52.2835 109.957 51.6968 110.08 51.0141 110.08C50.0755 110.08 49.3288 109.856 48.7741 109.408C48.2195 108.96 47.9421 108.368 47.9421 107.632C47.9421 106.917 48.1981 106.341 48.7101 105.904C49.2328 105.467 50.0595 105.248 51.1901 105.248H53.8621V104.736C53.8621 104.011 53.6595 103.461 53.2541 103.088C52.8488 102.704 52.2568 102.512 51.4781 102.512C50.9448 102.512 50.4328 102.603 49.9421 102.784C49.4515 102.955 49.0301 103.195 48.6781 103.504L48.1661 102.656C48.5928 102.293 49.1048 102.016 49.7021 101.824C50.2995 101.621 50.9288 101.52 51.5901 101.52ZM51.1901 109.184C51.8301 109.184 52.3795 109.04 52.8381 108.752C53.2968 108.453 53.6381 108.027 53.8621 107.472V106.096H51.2221C49.7821 106.096 49.0621 106.597 49.0621 107.6C49.0621 108.091 49.2488 108.48 49.6221 108.768C49.9955 109.045 50.5181 109.184 51.1901 109.184ZM62.3583 101.52C63.1476 101.52 63.8623 101.701 64.5023 102.064C65.1423 102.416 65.6436 102.917 66.0063 103.568C66.3689 104.219 66.5503 104.96 66.5503 105.792C66.5503 106.635 66.3689 107.381 66.0063 108.032C65.6436 108.683 65.1423 109.189 64.5023 109.552C63.8729 109.904 63.1583 110.08 62.3583 110.08C61.6756 110.08 61.0569 109.941 60.5023 109.664C59.9583 109.376 59.5103 108.96 59.1583 108.416V113.104H58.0223V101.584H59.1103V103.248C59.4516 102.693 59.8996 102.267 60.4543 101.968C61.0196 101.669 61.6543 101.52 62.3583 101.52ZM62.2783 109.072C62.8649 109.072 63.3983 108.939 63.8783 108.672C64.3583 108.395 64.7316 108.005 64.9983 107.504C65.2756 107.003 65.4143 106.432 65.4143 105.792C65.4143 105.152 65.2756 104.587 64.9983 104.096C64.7316 103.595 64.3583 103.205 63.8783 102.928C63.3983 102.651 62.8649 102.512 62.2783 102.512C61.6809 102.512 61.1423 102.651 60.6623 102.928C60.1929 103.205 59.8196 103.595 59.5423 104.096C59.2756 104.587 59.1423 105.152 59.1423 105.792C59.1423 106.432 59.2756 107.003 59.5423 107.504C59.8196 108.005 60.1929 108.395 60.6623 108.672C61.1423 108.939 61.6809 109.072 62.2783 109.072ZM68.991 101.584H70.127V105.312H75.423V101.584H76.559V110H75.423V106.288H70.127V110H68.991V101.584ZM83.3239 104.56C84.3799 104.571 85.1852 104.805 85.7399 105.264C86.2945 105.723 86.5719 106.384 86.5719 107.248C86.5719 108.144 86.2732 108.832 85.6759 109.312C85.0785 109.792 84.2252 110.027 83.1159 110.016L79.7879 110V101.584H80.9239V104.528L83.3239 104.56ZM87.9799 101.584H89.1159V110H87.9799V101.584ZM83.0519 109.152C83.8305 109.163 84.4172 109.008 84.8119 108.688C85.2172 108.357 85.4199 107.877 85.4199 107.248C85.4199 106.629 85.2225 106.171 84.8279 105.872C84.4332 105.573 83.8412 105.419 83.0519 105.408L80.9239 105.376V109.12L83.0519 109.152ZM97.6144 110L94.9424 106.48L92.2544 110H90.9744L94.3024 105.68L91.1344 101.584H92.4144L94.9424 104.88L97.4704 101.584H98.7184L95.5504 105.68L98.9104 110H97.6144ZM109.056 105.616C109.653 105.755 110.112 105.995 110.432 106.336C110.762 106.677 110.928 107.093 110.928 107.584C110.928 108.075 110.757 108.512 110.416 108.896C110.085 109.28 109.632 109.579 109.056 109.792C108.48 109.995 107.845 110.096 107.152 110.096C106.544 110.096 105.946 110.011 105.36 109.84C104.773 109.659 104.261 109.397 103.824 109.056L104.208 108.208C104.592 108.496 105.04 108.72 105.552 108.88C106.064 109.04 106.581 109.12 107.104 109.12C107.882 109.12 108.517 108.976 109.008 108.688C109.509 108.389 109.76 107.989 109.76 107.488C109.76 107.04 109.557 106.693 109.152 106.448C108.746 106.192 108.192 106.064 107.488 106.064H106.048V105.232H107.424C108.053 105.232 108.56 105.115 108.944 104.88C109.328 104.635 109.52 104.309 109.52 103.904C109.52 103.456 109.301 103.104 108.864 102.848C108.437 102.592 107.877 102.464 107.184 102.464C106.277 102.464 105.381 102.693 104.496 103.152L104.176 102.272C105.178 101.749 106.218 101.488 107.296 101.488C107.936 101.488 108.512 101.584 109.024 101.776C109.546 101.957 109.952 102.219 110.24 102.56C110.538 102.901 110.688 103.296 110.688 103.744C110.688 104.171 110.538 104.549 110.24 104.88C109.952 105.211 109.557 105.456 109.056 105.616ZM113.507 101.584H114.643V105.312H119.939V101.584H121.075V110H119.939V106.288H114.643V110H113.507V101.584ZM127.2 101.52C128.298 101.52 129.141 101.797 129.728 102.352C130.314 102.896 130.608 103.707 130.608 104.784V110H129.52V108.688C129.264 109.125 128.885 109.467 128.384 109.712C127.893 109.957 127.306 110.08 126.624 110.08C125.685 110.08 124.938 109.856 124.384 109.408C123.829 108.96 123.552 108.368 123.552 107.632C123.552 106.917 123.808 106.341 124.32 105.904C124.842 105.467 125.669 105.248 126.799 105.248H129.472V104.736C129.472 104.011 129.269 103.461 128.864 103.088C128.458 102.704 127.866 102.512 127.088 102.512C126.554 102.512 126.042 102.603 125.552 102.784C125.061 102.955 124.64 103.195 124.288 103.504L123.776 102.656C124.202 102.293 124.714 102.016 125.312 101.824C125.909 101.621 126.538 101.52 127.2 101.52ZM126.799 109.184C127.44 109.184 127.989 109.04 128.448 108.752C128.906 108.453 129.248 108.027 129.472 107.472V106.096H126.832C125.392 106.096 124.672 106.597 124.672 107.6C124.672 108.091 124.858 108.48 125.232 108.768C125.605 109.045 126.128 109.184 126.799 109.184ZM136.688 106.256H134.768V110H133.632V101.584H134.768V105.28H136.704L139.664 101.584H140.896L137.584 105.664L141.136 110H139.792L136.688 106.256ZM146.104 110.08C145.293 110.08 144.562 109.899 143.912 109.536C143.261 109.163 142.749 108.651 142.376 108C142.002 107.349 141.816 106.613 141.816 105.792C141.816 104.971 142.002 104.235 142.376 103.584C142.749 102.933 143.261 102.427 143.912 102.064C144.562 101.701 145.293 101.52 146.104 101.52C146.914 101.52 147.645 101.701 148.296 102.064C148.946 102.427 149.453 102.933 149.816 103.584C150.189 104.235 150.376 104.971 150.376 105.792C150.376 106.613 150.189 107.349 149.816 108C149.453 108.651 148.946 109.163 148.296 109.536C147.645 109.899 146.914 110.08 146.104 110.08ZM146.104 109.072C146.701 109.072 147.234 108.939 147.704 108.672C148.184 108.395 148.557 108.005 148.824 107.504C149.09 107.003 149.224 106.432 149.224 105.792C149.224 105.152 149.09 104.581 148.824 104.08C148.557 103.579 148.184 103.195 147.704 102.928C147.234 102.651 146.701 102.512 146.104 102.512C145.506 102.512 144.968 102.651 144.488 102.928C144.018 103.195 143.645 103.579 143.368 104.08C143.101 104.581 142.968 105.152 142.968 105.792C142.968 106.432 143.101 107.003 143.368 107.504C143.645 108.005 144.018 108.395 144.488 108.672C144.968 108.939 145.506 109.072 146.104 109.072ZM158.164 105.648C159.305 105.915 159.876 106.603 159.876 107.712C159.876 108.448 159.604 109.013 159.06 109.408C158.516 109.803 157.705 110 156.628 110H152.804V101.584H156.516C157.476 101.584 158.228 101.771 158.772 102.144C159.316 102.517 159.588 103.051 159.588 103.744C159.588 104.203 159.46 104.597 159.204 104.928C158.958 105.248 158.612 105.488 158.164 105.648ZM153.908 105.328H156.436C157.086 105.328 157.582 105.205 157.924 104.96C158.276 104.715 158.452 104.357 158.452 103.888C158.452 103.419 158.276 103.067 157.924 102.832C157.582 102.597 157.086 102.48 156.436 102.48H153.908V105.328ZM156.58 109.104C157.305 109.104 157.849 108.987 158.212 108.752C158.574 108.517 158.756 108.149 158.756 107.648C158.756 107.147 158.59 106.779 158.26 106.544C157.929 106.299 157.406 106.176 156.692 106.176H153.908V109.104H156.58Z" fill="#8A8A8A"/>
<path d="M8 1H384V-1H8V1ZM391 8V129H393V8H391ZM384 136H8V138H384V136ZM1 129V8H-1V129H1ZM8 136C4.134 136 1 132.866 1 129H-1C-1 133.971 3.02943 138 8 138V136ZM391 129C391 132.866 387.866 136 384 136V138C388.971 138 393 133.971 393 129H391ZM384 1C387.866 1 391 4.13401 391 8H393C393 3.02944 388.971 -1 384 -1V1ZM8 -1C3.02944 -1 -1 3.02943 -1 8H1C1 4.134 4.13401 1 8 1V-1Z" fill="url(#paint0_linear_575_366)"/>
<defs>
<linearGradient id="paint0_linear_575_366" x1="0" y1="0" x2="60.5" y2="93" gradientUnits="userSpaceOnUse">
<stop stop-color="#DA4533"/>
<stop offset="1" stop-color="#DA4533" stop-opacity="0"/>
</linearGradient>
</defs>
</svg>
